<?xml version="1.0" encoding="UTF-8"?>
<svg xmlns="http://www.w3.org/2000/svg" version="1.1" width="300" height="300" viewBox="0 0 300 300"><rect x="0" y="0" width="300" height="300" fill="#ffffff"/><g transform="scale(5.263)"><g transform="translate(0,0)"><path fill-rule="evenodd" d="M8 0L8 1L9 1L9 2L10 2L10 3L9 3L9 6L8 6L8 8L9 8L9 6L10 6L10 7L11 7L11 6L12 6L12 7L13 7L13 6L14 6L14 7L15 7L15 9L13 9L13 8L10 8L10 9L7 9L7 8L6 8L6 9L7 9L7 10L6 10L6 11L7 11L7 12L5 12L5 11L4 11L4 9L5 9L5 8L3 8L3 11L2 11L2 12L1 12L1 11L0 11L0 12L1 12L1 13L0 13L0 15L1 15L1 14L2 14L2 17L1 17L1 16L0 16L0 17L1 17L1 18L0 18L0 19L1 19L1 20L2 20L2 22L3 22L3 19L1 19L1 18L2 18L2 17L4 17L4 16L6 16L6 17L5 17L5 18L6 18L6 19L7 19L7 20L5 20L5 19L4 19L4 20L5 20L5 21L4 21L4 23L1 23L1 24L3 24L3 25L0 25L0 31L1 31L1 30L2 30L2 31L3 31L3 32L2 32L2 33L1 33L1 34L0 34L0 38L2 38L2 39L1 39L1 41L0 41L0 42L1 42L1 44L2 44L2 43L3 43L3 46L2 46L2 45L1 45L1 46L0 46L0 48L5 48L5 47L7 47L7 48L6 48L6 49L8 49L8 50L9 50L9 51L10 51L10 53L12 53L12 54L13 54L13 55L14 55L14 56L11 56L11 55L10 55L10 54L9 54L9 52L8 52L8 54L9 54L9 55L8 55L8 57L9 57L9 55L10 55L10 56L11 56L11 57L15 57L15 55L14 55L14 54L15 54L15 53L12 53L12 52L11 52L11 51L12 51L12 50L11 50L11 49L10 49L10 48L9 48L9 47L10 47L10 45L9 45L9 44L10 44L10 43L11 43L11 41L10 41L10 40L9 40L9 39L11 39L11 40L12 40L12 38L13 38L13 37L12 37L12 36L13 36L13 35L12 35L12 36L11 36L11 34L10 34L10 35L9 35L9 32L8 32L8 34L5 34L5 35L4 35L4 34L2 34L2 33L3 33L3 32L4 32L4 31L5 31L5 33L7 33L7 32L6 32L6 31L10 31L10 33L11 33L11 32L13 32L13 34L14 34L14 39L13 39L13 40L14 40L14 41L12 41L12 43L13 43L13 42L14 42L14 45L13 45L13 47L12 47L12 48L13 48L13 49L14 49L14 50L13 50L13 51L14 51L14 50L15 50L15 48L17 48L17 50L16 50L16 51L15 51L15 52L18 52L18 53L16 53L16 55L17 55L17 56L16 56L16 57L21 57L21 56L18 56L18 55L20 55L20 54L21 54L21 55L22 55L22 57L25 57L25 56L26 56L26 54L25 54L25 53L29 53L29 54L28 54L28 57L32 57L32 56L33 56L33 55L35 55L35 56L34 56L34 57L37 57L37 56L36 56L36 54L37 54L37 55L38 55L38 56L39 56L39 57L41 57L41 53L40 53L40 51L41 51L41 52L43 52L43 53L42 53L42 55L43 55L43 54L44 54L44 56L45 56L45 57L47 57L47 56L48 56L48 57L54 57L54 56L57 56L57 54L54 54L54 53L57 53L57 51L56 51L56 50L55 50L55 47L57 47L57 46L55 46L55 45L57 45L57 42L56 42L56 41L57 41L57 38L56 38L56 35L57 35L57 32L56 32L56 31L57 31L57 30L56 30L56 29L55 29L55 30L54 30L54 29L53 29L53 28L55 28L55 25L54 25L54 24L55 24L55 23L57 23L57 22L55 22L55 23L54 23L54 21L56 21L56 20L57 20L57 18L56 18L56 17L55 17L55 16L57 16L57 15L54 15L54 14L55 14L55 13L54 13L54 14L53 14L53 12L51 12L51 11L54 11L54 12L56 12L56 13L57 13L57 8L56 8L56 10L51 10L51 8L50 8L50 9L49 9L49 8L48 8L48 7L49 7L49 6L48 6L48 7L47 7L47 5L48 5L48 0L42 0L42 1L40 1L40 0L38 0L38 1L37 1L37 0L36 0L36 1L35 1L35 0L34 0L34 1L35 1L35 2L36 2L36 1L37 1L37 2L38 2L38 1L39 1L39 3L38 3L38 4L37 4L37 3L31 3L31 4L30 4L30 3L29 3L29 2L33 2L33 0L32 0L32 1L31 1L31 0L30 0L30 1L27 1L27 0L26 0L26 3L27 3L27 4L25 4L25 0L24 0L24 4L25 4L25 6L24 6L24 5L23 5L23 0L22 0L22 3L18 3L18 1L17 1L17 0L16 0L16 1L15 1L15 0L13 0L13 4L12 4L12 5L11 5L11 6L10 6L10 4L11 4L11 1L9 1L9 0ZM19 0L19 1L21 1L21 0ZM14 1L14 2L15 2L15 1ZM16 1L16 2L17 2L17 1ZM44 1L44 2L45 2L45 1ZM46 1L46 2L47 2L47 1ZM27 2L27 3L28 3L28 2ZM40 2L40 3L41 3L41 4L39 4L39 5L37 5L37 8L39 8L39 9L40 9L40 6L41 6L41 7L42 7L42 6L43 6L43 8L41 8L41 9L43 9L43 8L44 8L44 9L46 9L46 5L47 5L47 3L46 3L46 5L45 5L45 4L43 4L43 2L42 2L42 3L41 3L41 2ZM15 3L15 4L13 4L13 5L12 5L12 6L13 6L13 5L14 5L14 6L15 6L15 7L16 7L16 6L17 6L17 7L18 7L18 5L20 5L20 6L19 6L19 7L20 7L20 6L21 6L21 7L22 7L22 8L19 8L19 9L18 9L18 8L17 8L17 9L18 9L18 10L17 10L17 11L16 11L16 10L15 10L15 11L14 11L14 10L12 10L12 11L11 11L11 10L9 10L9 11L8 11L8 12L9 12L9 13L10 13L10 12L9 12L9 11L11 11L11 12L12 12L12 13L11 13L11 14L10 14L10 15L9 15L9 14L8 14L8 13L6 13L6 14L7 14L7 15L6 15L6 16L7 16L7 17L6 17L6 18L8 18L8 20L7 20L7 21L6 21L6 22L7 22L7 23L4 23L4 24L5 24L5 25L6 25L6 26L7 26L7 25L6 25L6 24L7 24L7 23L11 23L11 24L13 24L13 23L14 23L14 25L15 25L15 24L16 24L16 23L17 23L17 25L16 25L16 26L14 26L14 27L13 27L13 28L12 28L12 27L11 27L11 26L10 26L10 24L9 24L9 25L8 25L8 26L9 26L9 27L10 27L10 30L11 30L11 29L12 29L12 30L13 30L13 31L14 31L14 32L16 32L16 33L18 33L18 34L17 34L17 35L18 35L18 36L17 36L17 38L16 38L16 40L15 40L15 41L16 41L16 40L17 40L17 44L16 44L16 42L15 42L15 44L16 44L16 45L17 45L17 46L18 46L18 45L19 45L19 42L18 42L18 40L17 40L17 38L18 38L18 39L19 39L19 41L20 41L20 42L22 42L22 41L23 41L23 42L24 42L24 43L22 43L22 44L23 44L23 45L25 45L25 46L26 46L26 48L29 48L29 47L30 47L30 48L31 48L31 47L30 47L30 45L29 45L29 46L26 46L26 45L27 45L27 44L28 44L28 43L29 43L29 42L30 42L30 40L29 40L29 38L30 38L30 37L31 37L31 40L32 40L32 41L31 41L31 43L30 43L30 44L31 44L31 45L33 45L33 44L31 44L31 43L33 43L33 42L32 42L32 41L33 41L33 40L32 40L32 36L29 36L29 35L32 35L32 33L33 33L33 31L34 31L34 33L35 33L35 31L36 31L36 32L37 32L37 33L38 33L38 32L39 32L39 34L40 34L40 31L39 31L39 30L40 30L40 29L41 29L41 30L42 30L42 32L41 32L41 35L38 35L38 36L39 36L39 37L40 37L40 36L42 36L42 37L44 37L44 38L43 38L43 39L41 39L41 38L38 38L38 37L36 37L36 36L37 36L37 34L36 34L36 35L34 35L34 36L33 36L33 39L34 39L34 40L37 40L37 41L34 41L34 42L37 42L37 41L38 41L38 43L37 43L37 45L35 45L35 44L36 44L36 43L34 43L34 45L35 45L35 46L34 46L34 48L37 48L37 45L39 45L39 44L38 44L38 43L39 43L39 40L40 40L40 41L41 41L41 42L40 42L40 43L41 43L41 42L42 42L42 40L43 40L43 39L44 39L44 40L46 40L46 39L44 39L44 38L45 38L45 37L44 37L44 36L43 36L43 35L44 35L44 34L45 34L45 32L46 32L46 33L48 33L48 34L47 34L47 36L48 36L48 37L46 37L46 38L48 38L48 37L49 37L49 39L47 39L47 40L49 40L49 39L51 39L51 40L50 40L50 41L51 41L51 43L50 43L50 42L48 42L48 41L47 41L47 42L46 42L46 43L47 43L47 47L46 47L46 48L45 48L45 49L46 49L46 51L43 51L43 50L44 50L44 46L45 46L45 45L46 45L46 44L43 44L43 43L42 43L42 45L44 45L44 46L42 46L42 47L43 47L43 48L42 48L42 49L43 49L43 50L42 50L42 51L43 51L43 52L45 52L45 53L44 53L44 54L45 54L45 56L46 56L46 55L48 55L48 56L50 56L50 54L49 54L49 55L48 55L48 54L46 54L46 53L47 53L47 52L46 52L46 51L47 51L47 48L54 48L54 47L55 47L55 46L54 46L54 45L55 45L55 44L56 44L56 42L55 42L55 44L54 44L54 45L53 45L53 44L52 44L52 40L53 40L53 42L54 42L54 40L53 40L53 39L55 39L55 41L56 41L56 38L55 38L55 36L52 36L52 33L53 33L53 32L51 32L51 31L50 31L50 34L51 34L51 35L49 35L49 31L48 31L48 32L46 32L46 31L47 31L47 30L46 30L46 31L45 31L45 29L44 29L44 30L42 30L42 29L43 29L43 28L44 28L44 27L43 27L43 26L44 26L44 24L45 24L45 23L42 23L42 24L41 24L41 23L40 23L40 22L38 22L38 21L40 21L40 17L41 17L41 18L42 18L42 16L41 16L41 15L44 15L44 16L45 16L45 17L47 17L47 18L46 18L46 19L47 19L47 20L45 20L45 18L44 18L44 21L49 21L49 22L48 22L48 23L47 23L47 22L46 22L46 26L45 26L45 27L46 27L46 28L47 28L47 29L48 29L48 28L47 28L47 27L48 27L48 26L47 26L47 24L48 24L48 25L49 25L49 26L50 26L50 25L49 25L49 24L50 24L50 23L51 23L51 22L52 22L52 23L53 23L53 24L54 24L54 23L53 23L53 21L54 21L54 20L53 20L53 19L52 19L52 18L53 18L53 14L52 14L52 13L51 13L51 14L52 14L52 18L51 18L51 16L50 16L50 14L49 14L49 15L48 15L48 16L50 16L50 18L51 18L51 19L49 19L49 18L48 18L48 17L47 17L47 13L46 13L46 11L45 11L45 10L43 10L43 12L42 12L42 11L41 11L41 12L42 12L42 13L43 13L43 14L39 14L39 15L38 15L38 14L37 14L37 13L36 13L36 12L35 12L35 11L36 11L36 10L38 10L38 12L39 12L39 13L40 13L40 12L39 12L39 11L40 11L40 10L38 10L38 9L36 9L36 5L35 5L35 4L31 4L31 7L32 7L32 6L33 6L33 7L34 7L34 6L33 6L33 5L35 5L35 8L34 8L34 11L33 11L33 9L32 9L32 8L31 8L31 10L32 10L32 11L31 11L31 13L32 13L32 11L33 11L33 13L34 13L34 14L35 14L35 16L34 16L34 17L36 17L36 19L34 19L34 20L37 20L37 22L38 22L38 23L39 23L39 27L38 27L38 24L37 24L37 23L35 23L35 22L36 22L36 21L35 21L35 22L34 22L34 23L32 23L32 24L33 24L33 26L32 26L32 25L31 25L31 26L32 26L32 27L31 27L31 28L33 28L33 29L31 29L31 31L32 31L32 32L30 32L30 31L29 31L29 32L30 32L30 33L29 33L29 34L28 34L28 36L29 36L29 38L28 38L28 40L27 40L27 39L26 39L26 38L27 38L27 37L26 37L26 38L25 38L25 37L24 37L24 38L23 38L23 37L22 37L22 36L23 36L23 33L25 33L25 34L24 34L24 35L25 35L25 36L26 36L26 35L25 35L25 34L26 34L26 33L28 33L28 32L27 32L27 31L26 31L26 27L24 27L24 28L23 28L23 25L22 25L22 24L23 24L23 23L24 23L24 21L23 21L23 23L22 23L22 22L21 22L21 21L22 21L22 19L21 19L21 17L25 17L25 16L26 16L26 18L25 18L25 22L26 22L26 21L28 21L28 20L29 20L29 21L31 21L31 22L32 22L32 21L33 21L33 20L29 20L29 19L27 19L27 16L26 16L26 15L28 15L28 12L29 12L29 14L30 14L30 12L29 12L29 10L28 10L28 11L27 11L27 9L26 9L26 10L25 10L25 11L26 11L26 13L25 13L25 12L24 12L24 9L25 9L25 7L26 7L26 6L25 6L25 7L24 7L24 6L23 6L23 7L22 7L22 5L20 5L20 4L18 4L18 5L16 5L16 3ZM42 4L42 5L41 5L41 6L42 6L42 5L43 5L43 6L44 6L44 7L45 7L45 5L43 5L43 4ZM27 5L27 8L30 8L30 5ZM28 6L28 7L29 7L29 6ZM38 6L38 7L39 7L39 6ZM23 7L23 8L22 8L22 10L21 10L21 9L19 9L19 10L20 10L20 11L19 11L19 13L18 13L18 14L16 14L16 13L15 13L15 12L16 12L16 11L15 11L15 12L14 12L14 11L12 11L12 12L13 12L13 13L14 13L14 14L16 14L16 15L18 15L18 17L17 17L17 16L16 16L16 18L15 18L15 16L13 16L13 15L12 15L12 14L11 14L11 16L12 16L12 17L11 17L11 18L10 18L10 16L9 16L9 15L8 15L8 16L9 16L9 17L8 17L8 18L10 18L10 19L9 19L9 20L8 20L8 22L11 22L11 23L13 23L13 22L11 22L11 21L9 21L9 20L12 20L12 19L11 19L11 18L13 18L13 17L14 17L14 18L15 18L15 20L14 20L14 19L13 19L13 20L14 20L14 23L15 23L15 20L16 20L16 22L17 22L17 21L18 21L18 27L14 27L14 30L17 30L17 31L16 31L16 32L18 32L18 33L19 33L19 35L20 35L20 34L21 34L21 33L20 33L20 31L21 31L21 30L20 30L20 29L19 29L19 28L20 28L20 27L19 27L19 25L20 25L20 26L22 26L22 25L21 25L21 23L19 23L19 22L20 22L20 20L21 20L21 19L20 19L20 20L19 20L19 19L18 19L18 17L19 17L19 18L20 18L20 17L19 17L19 15L21 15L21 14L22 14L22 16L25 16L25 15L26 15L26 14L27 14L27 13L26 13L26 14L25 14L25 13L24 13L24 12L23 12L23 11L22 11L22 10L23 10L23 9L24 9L24 7ZM0 8L0 9L1 9L1 10L2 10L2 8ZM47 8L47 9L48 9L48 8ZM35 9L35 10L36 10L36 9ZM49 10L49 11L47 11L47 12L48 12L48 13L50 13L50 11L51 11L51 10ZM17 11L17 12L18 12L18 11ZM20 11L20 13L19 13L19 14L20 14L20 13L21 13L21 11ZM2 12L2 14L3 14L3 13L5 13L5 12ZM34 12L34 13L35 13L35 12ZM44 12L44 13L45 13L45 12ZM22 13L22 14L23 14L23 13ZM4 14L4 15L5 15L5 14ZM24 14L24 15L25 15L25 14ZM31 14L31 15L29 15L29 16L28 16L28 17L29 17L29 18L30 18L30 19L33 19L33 17L31 17L31 18L30 18L30 16L33 16L33 14ZM36 14L36 17L37 17L37 20L38 20L38 19L39 19L39 18L38 18L38 17L39 17L39 16L38 16L38 17L37 17L37 14ZM45 14L45 15L46 15L46 14ZM54 17L54 19L56 19L56 18L55 18L55 17ZM16 19L16 20L17 20L17 19ZM26 19L26 20L27 20L27 19ZM41 19L41 21L42 21L42 20L43 20L43 19ZM48 19L48 20L49 20L49 19ZM51 19L51 20L50 20L50 22L51 22L51 20L52 20L52 21L53 21L53 20L52 20L52 19ZM0 21L0 22L1 22L1 21ZM27 22L27 23L25 23L25 25L26 25L26 26L29 26L29 25L30 25L30 24L31 24L31 23L29 23L29 22ZM27 23L27 24L26 24L26 25L27 25L27 24L28 24L28 25L29 25L29 23ZM34 23L34 25L36 25L36 27L35 27L35 26L34 26L34 27L35 27L35 29L34 29L34 30L35 30L35 29L36 29L36 31L37 31L37 32L38 32L38 29L39 29L39 28L38 28L38 27L37 27L37 24L35 24L35 23ZM48 23L48 24L49 24L49 23ZM40 24L40 28L42 28L42 27L41 27L41 26L43 26L43 24L42 24L42 25L41 25L41 24ZM51 24L51 26L52 26L52 24ZM3 25L3 26L4 26L4 25ZM12 25L12 26L13 26L13 25ZM56 25L56 26L57 26L57 25ZM1 26L1 28L2 28L2 26ZM46 26L46 27L47 27L47 26ZM53 26L53 27L54 27L54 26ZM5 27L5 30L8 30L8 27ZM27 27L27 30L30 30L30 27ZM36 27L36 28L37 28L37 27ZM49 27L49 30L52 30L52 27ZM6 28L6 29L7 29L7 28ZM15 28L15 29L17 29L17 30L18 30L18 29L17 29L17 28ZM22 28L22 31L23 31L23 28ZM28 28L28 29L29 29L29 28ZM50 28L50 29L51 29L51 28ZM24 29L24 31L25 31L25 33L26 33L26 31L25 31L25 29ZM19 30L19 31L18 31L18 32L19 32L19 31L20 31L20 30ZM32 30L32 31L33 31L33 30ZM53 30L53 31L54 31L54 30ZM55 30L55 31L56 31L56 30ZM43 31L43 32L44 32L44 31ZM22 32L22 33L23 33L23 32ZM54 32L54 33L55 33L55 32ZM42 33L42 34L44 34L44 33ZM15 34L15 36L16 36L16 34ZM53 34L53 35L54 35L54 34ZM6 35L6 36L8 36L8 35ZM21 35L21 36L20 36L20 37L19 37L19 36L18 36L18 38L21 38L21 36L22 36L22 35ZM2 36L2 37L4 37L4 36ZM9 36L9 38L8 38L8 37L5 37L5 39L4 39L4 38L3 38L3 39L2 39L2 41L1 41L1 42L3 42L3 43L4 43L4 44L5 44L5 45L4 45L4 46L3 46L3 47L5 47L5 45L6 45L6 46L7 46L7 47L8 47L8 46L7 46L7 45L6 45L6 44L7 44L7 43L8 43L8 44L9 44L9 43L10 43L10 41L9 41L9 40L8 40L8 39L9 39L9 38L10 38L10 36ZM34 36L34 37L35 37L35 36ZM51 36L51 37L50 37L50 38L51 38L51 39L52 39L52 36ZM6 38L6 39L5 39L5 42L6 42L6 43L7 43L7 42L8 42L8 43L9 43L9 41L8 41L8 40L6 40L6 39L8 39L8 38ZM22 38L22 40L23 40L23 41L24 41L24 42L25 42L25 44L27 44L27 43L26 43L26 39L25 39L25 41L24 41L24 39L23 39L23 38ZM20 39L20 41L21 41L21 39ZM38 39L38 40L39 40L39 39ZM28 40L28 42L29 42L29 40ZM3 41L3 42L4 42L4 41ZM6 41L6 42L7 42L7 41ZM43 41L43 42L44 42L44 43L45 43L45 42L44 42L44 41ZM20 43L20 45L21 45L21 43ZM49 43L49 44L48 44L48 47L51 47L51 46L53 46L53 45L52 45L52 44L51 44L51 46L49 46L49 45L50 45L50 43ZM17 44L17 45L18 45L18 44ZM11 45L11 46L12 46L12 45ZM14 45L14 47L13 47L13 48L14 48L14 47L15 47L15 45ZM1 46L1 47L2 47L2 46ZM19 46L19 47L18 47L18 48L20 48L20 49L18 49L18 50L20 50L20 51L21 51L21 54L22 54L22 55L23 55L23 56L24 56L24 54L23 54L23 53L24 53L24 51L25 51L25 52L26 52L26 50L24 50L24 49L25 49L25 47L24 47L24 46L23 46L23 47L24 47L24 48L23 48L23 49L22 49L22 46ZM32 46L32 47L33 47L33 46ZM35 46L35 47L36 47L36 46ZM38 46L38 49L36 49L36 50L35 50L35 49L34 49L34 50L35 50L35 52L34 52L34 51L32 51L32 49L31 49L31 52L33 52L33 53L32 53L32 55L31 55L31 56L32 56L32 55L33 55L33 53L35 53L35 54L36 54L36 50L37 50L37 52L39 52L39 50L38 50L38 49L40 49L40 48L41 48L41 46ZM20 47L20 48L21 48L21 47ZM39 47L39 48L40 48L40 47ZM56 48L56 49L57 49L57 48ZM20 49L20 50L21 50L21 49ZM27 49L27 52L30 52L30 49ZM49 49L49 52L52 52L52 49ZM10 50L10 51L11 51L11 50ZM22 50L22 51L24 51L24 50ZM28 50L28 51L29 51L29 50ZM50 50L50 51L51 51L51 50ZM18 51L18 52L19 52L19 53L20 53L20 52L19 52L19 51ZM53 52L53 53L52 53L52 54L51 54L51 56L53 56L53 55L54 55L54 54L53 54L53 53L54 53L54 52ZM38 53L38 55L40 55L40 53ZM17 54L17 55L18 55L18 54ZM29 54L29 56L30 56L30 54ZM52 54L52 55L53 55L53 54ZM0 0L0 7L7 7L7 0ZM1 1L1 6L6 6L6 1ZM2 2L2 5L5 5L5 2ZM50 0L50 7L57 7L57 0ZM51 1L51 6L56 6L56 1ZM52 2L52 5L55 5L55 2ZM0 50L0 57L7 57L7 50ZM1 51L1 56L6 56L6 51ZM2 52L2 55L5 55L5 52Z" fill="#000000"/></g></g></svg>
