<?xml version="1.0" encoding="UTF-8"?>
<svg xmlns="http://www.w3.org/2000/svg" version="1.1" width="300" height="300" viewBox="0 0 300 300"><rect x="0" y="0" width="300" height="300" fill="#ffffff"/><g transform="scale(5.263)"><g transform="translate(0,0)"><path fill-rule="evenodd" d="M8 0L8 2L9 2L9 3L10 3L10 5L9 5L9 4L8 4L8 9L9 9L9 10L8 10L8 11L9 11L9 12L4 12L4 11L3 11L3 10L6 10L6 11L7 11L7 10L6 10L6 9L7 9L7 8L5 8L5 9L3 9L3 8L0 8L0 11L1 11L1 12L0 12L0 13L1 13L1 14L0 14L0 15L2 15L2 16L1 16L1 17L0 17L0 21L2 21L2 20L3 20L3 17L4 17L4 24L3 24L3 22L0 22L0 23L1 23L1 24L0 24L0 27L4 27L4 30L2 30L2 31L1 31L1 30L0 30L0 31L1 31L1 32L0 32L0 34L1 34L1 35L5 35L5 36L4 36L4 39L3 39L3 40L2 40L2 42L1 42L1 43L0 43L0 44L4 44L4 45L0 45L0 48L5 48L5 47L7 47L7 48L6 48L6 49L7 49L7 48L9 48L9 49L8 49L8 50L11 50L11 51L10 51L10 52L9 52L9 51L8 51L8 52L9 52L9 54L8 54L8 57L9 57L9 54L10 54L10 53L11 53L11 52L14 52L14 50L13 50L13 49L15 49L15 52L16 52L16 53L17 53L17 52L16 52L16 49L17 49L17 46L16 46L16 45L15 45L15 44L13 44L13 45L11 45L11 46L10 46L10 45L9 45L9 41L10 41L10 38L9 38L9 37L10 37L10 36L11 36L11 38L12 38L12 39L13 39L13 40L14 40L14 42L15 42L15 40L18 40L18 41L17 41L17 42L16 42L16 44L17 44L17 42L18 42L18 41L19 41L19 42L20 42L20 43L21 43L21 44L19 44L19 43L18 43L18 44L19 44L19 46L18 46L18 49L19 49L19 50L20 50L20 51L18 51L18 50L17 50L17 51L18 51L18 53L19 53L19 54L18 54L18 55L17 55L17 54L16 54L16 55L17 55L17 56L15 56L15 54L14 54L14 53L13 53L13 54L11 54L11 55L10 55L10 57L12 57L12 56L11 56L11 55L14 55L14 56L13 56L13 57L17 57L17 56L18 56L18 57L19 57L19 56L21 56L21 57L23 57L23 56L22 56L22 55L23 55L23 51L24 51L24 50L23 50L23 48L22 48L22 49L21 49L21 50L20 50L20 48L21 48L21 47L20 47L20 45L21 45L21 46L22 46L22 47L23 47L23 46L24 46L24 48L25 48L25 49L26 49L26 53L31 53L31 54L30 54L30 55L31 55L31 56L30 56L30 57L33 57L33 56L32 56L32 53L33 53L33 54L34 54L34 55L35 55L35 56L34 56L34 57L35 57L35 56L36 56L36 57L37 57L37 56L38 56L38 57L42 57L42 56L44 56L44 57L48 57L48 55L49 55L49 56L50 56L50 57L54 57L54 54L55 54L55 55L57 55L57 54L55 54L55 52L56 52L56 53L57 53L57 52L56 52L56 51L57 51L57 49L56 49L56 47L57 47L57 44L56 44L56 45L55 45L55 48L54 48L54 47L53 47L53 46L52 46L52 44L54 44L54 43L55 43L55 42L54 42L54 41L57 41L57 40L54 40L54 39L52 39L52 37L53 37L53 36L51 36L51 37L50 37L50 35L51 35L51 34L50 34L50 35L47 35L47 36L46 36L46 32L47 32L47 34L49 34L49 33L51 33L51 32L54 32L54 31L55 31L55 32L56 32L56 33L55 33L55 34L56 34L56 35L55 35L55 37L54 37L54 38L55 38L55 37L56 37L56 38L57 38L57 37L56 37L56 35L57 35L57 34L56 34L56 33L57 33L57 32L56 32L56 31L57 31L57 30L56 30L56 31L55 31L55 29L54 29L54 31L53 31L53 28L54 28L54 27L55 27L55 26L54 26L54 19L55 19L55 18L56 18L56 19L57 19L57 18L56 18L56 17L55 17L55 16L57 16L57 14L56 14L56 12L57 12L57 10L56 10L56 12L55 12L55 14L56 14L56 15L55 15L55 16L54 16L54 15L52 15L52 14L53 14L53 12L54 12L54 11L55 11L55 9L57 9L57 8L55 8L55 9L54 9L54 10L53 10L53 8L49 8L49 6L48 6L48 8L47 8L47 5L48 5L48 0L45 0L45 1L44 1L44 0L42 0L42 1L41 1L41 0L40 0L40 1L39 1L39 0L38 0L38 1L39 1L39 2L38 2L38 3L39 3L39 4L38 4L38 5L39 5L39 4L40 4L40 9L39 9L39 10L40 10L40 9L41 9L41 12L40 12L40 11L39 11L39 12L38 12L38 11L37 11L37 10L36 10L36 9L38 9L38 8L39 8L39 6L38 6L38 7L37 7L37 6L36 6L36 5L37 5L37 4L36 4L36 1L37 1L37 0L34 0L34 2L35 2L35 3L34 3L34 5L33 5L33 4L32 4L32 3L33 3L33 2L32 2L32 3L31 3L31 4L28 4L28 3L26 3L26 5L24 5L24 7L23 7L23 6L22 6L22 7L21 7L21 6L20 6L20 5L22 5L22 3L25 3L25 2L27 2L27 0L24 0L24 2L23 2L23 0L22 0L22 3L21 3L21 4L20 4L20 2L21 2L21 0L20 0L20 2L19 2L19 1L17 1L17 0L16 0L16 1L17 1L17 2L15 2L15 0L12 0L12 1L11 1L11 2L9 2L9 0ZM28 0L28 2L29 2L29 3L30 3L30 1L33 1L33 0L30 0L30 1L29 1L29 0ZM12 1L12 2L11 2L11 4L12 4L12 6L11 6L11 7L10 7L10 6L9 6L9 7L10 7L10 8L11 8L11 10L12 10L12 12L11 12L11 13L10 13L10 12L9 12L9 13L10 13L10 14L11 14L11 15L9 15L9 14L8 14L8 15L6 15L6 14L7 14L7 13L5 13L5 14L4 14L4 13L3 13L3 11L2 11L2 14L3 14L3 16L2 16L2 17L1 17L1 18L2 18L2 17L3 17L3 16L5 16L5 18L8 18L8 15L9 15L9 18L10 18L10 19L6 19L6 20L5 20L5 21L6 21L6 22L5 22L5 23L6 23L6 24L7 24L7 25L6 25L6 26L7 26L7 25L8 25L8 26L9 26L9 28L11 28L11 32L10 32L10 31L9 31L9 32L8 32L8 33L6 33L6 34L5 34L5 35L6 35L6 36L5 36L5 39L4 39L4 42L3 42L3 43L4 43L4 44L5 44L5 45L4 45L4 46L3 46L3 47L5 47L5 46L7 46L7 47L8 47L8 46L9 46L9 45L8 45L8 44L7 44L7 43L8 43L8 42L7 42L7 41L8 41L8 35L9 35L9 36L10 36L10 34L11 34L11 35L12 35L12 29L13 29L13 30L14 30L14 29L16 29L16 30L15 30L15 32L13 32L13 36L12 36L12 37L13 37L13 36L14 36L14 37L15 37L15 36L16 36L16 35L15 35L15 34L14 34L14 33L15 33L15 32L16 32L16 30L17 30L17 31L18 31L18 32L17 32L17 33L16 33L16 34L17 34L17 38L16 38L16 39L18 39L18 40L21 40L21 41L20 41L20 42L23 42L23 41L24 41L24 43L22 43L22 44L24 44L24 46L25 46L25 47L26 47L26 48L27 48L27 44L28 44L28 46L29 46L29 47L28 47L28 48L31 48L31 49L32 49L32 50L31 50L31 53L32 53L32 51L33 51L33 49L32 49L32 47L33 47L33 48L34 48L34 50L35 50L35 49L36 49L36 48L35 48L35 47L36 47L36 46L35 46L35 45L36 45L36 44L37 44L37 45L38 45L38 46L37 46L37 48L38 48L38 51L37 51L37 50L36 50L36 51L35 51L35 53L34 53L34 54L35 54L35 53L36 53L36 55L38 55L38 56L39 56L39 55L40 55L40 54L41 54L41 56L42 56L42 54L43 54L43 55L44 55L44 56L46 56L46 55L48 55L48 54L50 54L50 56L53 56L53 55L52 55L52 54L50 54L50 53L47 53L47 51L48 51L48 50L47 50L47 48L45 48L45 47L44 47L44 48L43 48L43 46L45 46L45 45L46 45L46 47L48 47L48 46L49 46L49 48L52 48L52 46L51 46L51 47L50 47L50 45L46 45L46 44L45 44L45 42L44 42L44 40L43 40L43 41L42 41L42 38L43 38L43 39L45 39L45 40L46 40L46 43L47 43L47 44L48 44L48 43L49 43L49 44L50 44L50 42L48 42L48 43L47 43L47 40L48 40L48 41L52 41L52 43L51 43L51 44L52 44L52 43L53 43L53 41L52 41L52 39L51 39L51 40L50 40L50 37L49 37L49 36L48 36L48 37L46 37L46 39L45 39L45 38L44 38L44 36L42 36L42 34L43 34L43 35L44 35L44 34L43 34L43 33L44 33L44 31L45 31L45 32L46 32L46 31L47 31L47 30L48 30L48 28L46 28L46 31L45 31L45 30L43 30L43 29L44 29L44 28L45 28L45 27L46 27L46 26L47 26L47 24L46 24L46 26L45 26L45 25L44 25L44 24L45 24L45 23L46 23L46 22L47 22L47 23L48 23L48 22L50 22L50 23L49 23L49 24L48 24L48 26L49 26L49 24L50 24L50 23L52 23L52 24L51 24L51 25L50 25L50 26L52 26L52 24L53 24L53 23L52 23L52 22L53 22L53 21L52 21L52 20L53 20L53 17L52 17L52 18L51 18L51 14L52 14L52 13L50 13L50 11L51 11L51 12L52 12L52 11L53 11L53 10L52 10L52 9L50 9L50 11L49 11L49 12L48 12L48 14L47 14L47 13L46 13L46 12L47 12L47 9L46 9L46 5L47 5L47 3L46 3L46 5L45 5L45 2L44 2L44 1L42 1L42 2L41 2L41 1L40 1L40 4L41 4L41 5L42 5L42 4L43 4L43 3L42 3L42 2L44 2L44 5L45 5L45 9L44 9L44 12L43 12L43 11L42 11L42 15L41 15L41 14L40 14L40 12L39 12L39 13L36 13L36 12L37 12L37 11L35 11L35 13L34 13L34 11L33 11L33 10L32 10L32 9L33 9L33 7L34 7L34 6L33 6L33 5L32 5L32 4L31 4L31 9L30 9L30 10L29 10L29 9L27 9L27 11L26 11L26 12L27 12L27 13L28 13L28 14L29 14L29 15L28 15L28 16L29 16L29 15L30 15L30 18L29 18L29 17L28 17L28 18L29 18L29 19L28 19L28 20L27 20L27 14L26 14L26 13L25 13L25 8L26 8L26 6L25 6L25 8L23 8L23 9L22 9L22 8L21 8L21 7L20 7L20 6L19 6L19 8L21 8L21 9L20 9L20 10L21 10L21 9L22 9L22 10L23 10L23 11L22 11L22 12L23 12L23 11L24 11L24 14L23 14L23 13L22 13L22 16L21 16L21 17L20 17L20 19L21 19L21 21L22 21L22 23L21 23L21 22L20 22L20 23L21 23L21 25L20 25L20 26L19 26L19 25L18 25L18 24L19 24L19 21L18 21L18 20L19 20L19 17L18 17L18 16L20 16L20 15L21 15L21 11L20 11L20 15L18 15L18 14L19 14L19 12L18 12L18 11L19 11L19 10L18 10L18 6L17 6L17 8L16 8L16 11L17 11L17 12L16 12L16 15L14 15L14 16L15 16L15 18L13 18L13 16L12 16L12 15L13 15L13 13L12 13L12 12L13 12L13 10L12 10L12 8L13 8L13 9L14 9L14 10L15 10L15 9L14 9L14 8L15 8L15 7L16 7L16 5L17 5L17 3L18 3L18 5L19 5L19 2L17 2L17 3L14 3L14 2L13 2L13 1ZM46 1L46 2L47 2L47 1ZM12 2L12 4L13 4L13 6L12 6L12 7L11 7L11 8L12 8L12 7L13 7L13 8L14 8L14 7L15 7L15 4L14 4L14 3L13 3L13 2ZM41 3L41 4L42 4L42 3ZM27 5L27 8L30 8L30 5ZM13 6L13 7L14 7L14 6ZM28 6L28 7L29 7L29 6ZM32 6L32 7L33 7L33 6ZM35 6L35 8L34 8L34 9L35 9L35 8L37 8L37 7L36 7L36 6ZM41 6L41 7L42 7L42 10L43 10L43 7L44 7L44 6L43 6L43 7L42 7L42 6ZM1 9L1 10L2 10L2 9ZM45 9L45 11L46 11L46 9ZM48 9L48 10L49 10L49 9ZM28 10L28 13L29 13L29 10ZM30 10L30 11L31 11L31 10ZM51 10L51 11L52 11L52 10ZM14 11L14 12L15 12L15 11ZM32 11L32 14L30 14L30 15L31 15L31 16L32 16L32 17L33 17L33 18L32 18L32 19L31 19L31 18L30 18L30 19L29 19L29 20L28 20L28 21L27 21L27 20L26 20L26 18L24 18L24 17L23 17L23 16L24 16L24 15L23 15L23 16L22 16L22 17L21 17L21 19L22 19L22 21L23 21L23 19L24 19L24 21L25 21L25 20L26 20L26 21L27 21L27 22L26 22L26 23L27 23L27 22L28 22L28 25L27 25L27 24L26 24L26 25L25 25L25 26L24 26L24 24L23 24L23 23L22 23L22 26L23 26L23 27L22 27L22 28L24 28L24 27L25 27L25 26L26 26L26 28L25 28L25 30L24 30L24 29L23 29L23 30L22 30L22 31L23 31L23 30L24 30L24 32L25 32L25 33L27 33L27 34L26 34L26 37L27 37L27 40L29 40L29 41L30 41L30 44L29 44L29 42L28 42L28 41L27 41L27 42L28 42L28 44L29 44L29 45L30 45L30 47L32 47L32 45L33 45L33 47L35 47L35 46L34 46L34 43L35 43L35 44L36 44L36 43L37 43L37 44L38 44L38 45L39 45L39 47L38 47L38 48L40 48L40 51L38 51L38 53L37 53L37 52L36 52L36 53L37 53L37 54L38 54L38 55L39 55L39 54L38 54L38 53L41 53L41 54L42 54L42 53L43 53L43 54L44 54L44 55L45 55L45 54L44 54L44 53L45 53L45 51L46 51L46 49L45 49L45 48L44 48L44 49L43 49L43 50L42 50L42 45L41 45L41 44L43 44L43 43L44 43L44 42L42 42L42 41L41 41L41 39L40 39L40 40L39 40L39 44L38 44L38 40L37 40L37 39L36 39L36 38L38 38L38 39L39 39L39 38L42 38L42 36L41 36L41 35L40 35L40 34L42 34L42 33L43 33L43 32L42 32L42 29L41 29L41 28L44 28L44 25L43 25L43 22L44 22L44 23L45 23L45 22L46 22L46 21L47 21L47 22L48 22L48 21L47 21L47 19L46 19L46 17L47 17L47 18L48 18L48 17L49 17L49 18L50 18L50 19L49 19L49 20L52 20L52 19L51 19L51 18L50 18L50 17L49 17L49 14L48 14L48 15L46 15L46 14L45 14L45 12L44 12L44 13L43 13L43 14L44 14L44 15L46 15L46 17L45 17L45 16L44 16L44 17L45 17L45 19L44 19L44 20L43 20L43 18L42 18L42 17L43 17L43 15L42 15L42 16L40 16L40 17L39 17L39 15L40 15L40 14L39 14L39 15L38 15L38 17L37 17L37 14L36 14L36 18L34 18L34 17L35 17L35 14L34 14L34 13L33 13L33 11ZM30 12L30 13L31 13L31 12ZM11 13L11 14L12 14L12 13ZM14 13L14 14L15 14L15 13ZM25 14L25 15L26 15L26 14ZM32 14L32 16L33 16L33 17L34 17L34 16L33 16L33 14ZM5 15L5 16L6 16L6 17L7 17L7 16L6 16L6 15ZM16 15L16 16L17 16L17 15ZM11 16L11 18L12 18L12 16ZM17 17L17 19L16 19L16 18L15 18L15 19L14 19L14 20L16 20L16 21L17 21L17 20L18 20L18 17ZM22 17L22 18L23 18L23 17ZM38 17L38 18L37 18L37 19L38 19L38 23L39 23L39 25L38 25L38 24L37 24L37 25L34 25L34 24L35 24L35 23L32 23L32 24L33 24L33 25L32 25L32 26L33 26L33 27L32 27L32 28L31 28L31 31L32 31L32 30L33 30L33 31L34 31L34 34L32 34L32 35L33 35L33 36L34 36L34 39L35 39L35 40L34 40L34 41L35 41L35 40L36 40L36 39L35 39L35 38L36 38L36 36L35 36L35 35L36 35L36 34L37 34L37 35L38 35L38 34L40 34L40 32L41 32L41 33L42 33L42 32L41 32L41 31L40 31L40 32L39 32L39 30L40 30L40 28L41 28L41 27L40 27L40 23L41 23L41 25L42 25L42 27L43 27L43 25L42 25L42 22L43 22L43 21L42 21L42 18L41 18L41 17L40 17L40 18L39 18L39 17ZM54 17L54 18L55 18L55 17ZM40 18L40 21L39 21L39 22L40 22L40 21L41 21L41 22L42 22L42 21L41 21L41 18ZM30 19L30 20L29 20L29 21L30 21L30 23L29 23L29 25L28 25L28 26L29 26L29 25L30 25L30 26L31 26L31 25L30 25L30 23L31 23L31 22L33 22L33 21L32 21L32 20L31 20L31 19ZM33 19L33 20L34 20L34 22L37 22L37 21L36 21L36 19L35 19L35 20L34 20L34 19ZM6 20L6 21L7 21L7 20ZM10 20L10 21L11 21L11 20ZM45 20L45 21L44 21L44 22L45 22L45 21L46 21L46 20ZM55 20L55 21L56 21L56 23L57 23L57 20ZM6 22L6 23L7 23L7 22ZM13 22L13 23L15 23L15 22ZM16 22L16 23L17 23L17 22ZM24 22L24 23L25 23L25 22ZM8 23L8 24L12 24L12 25L10 25L10 26L12 26L12 27L11 27L11 28L12 28L12 27L13 27L13 29L14 29L14 28L16 28L16 29L17 29L17 30L18 30L18 31L19 31L19 30L20 30L20 32L18 32L18 33L19 33L19 34L20 34L20 32L21 32L21 30L20 30L20 28L21 28L21 27L19 27L19 26L16 26L16 25L17 25L17 24L15 24L15 25L14 25L14 24L12 24L12 23ZM2 24L2 25L3 25L3 26L4 26L4 25L3 25L3 24ZM26 25L26 26L27 26L27 25ZM37 25L37 26L34 26L34 29L35 29L35 31L37 31L37 32L36 32L36 33L37 33L37 34L38 34L38 29L39 29L39 28L40 28L40 27L37 27L37 26L38 26L38 25ZM56 25L56 28L57 28L57 25ZM13 26L13 27L14 27L14 26ZM15 26L15 27L16 27L16 28L17 28L17 27L16 27L16 26ZM5 27L5 30L8 30L8 27ZM18 27L18 28L19 28L19 27ZM27 27L27 30L30 30L30 27ZM49 27L49 30L52 30L52 27ZM0 28L0 29L1 29L1 28ZM6 28L6 29L7 29L7 28ZM28 28L28 29L29 29L29 28ZM32 28L32 29L33 29L33 28ZM37 28L37 29L36 29L36 30L37 30L37 29L38 29L38 28ZM50 28L50 29L51 29L51 28ZM18 29L18 30L19 30L19 29ZM3 31L3 32L4 32L4 33L5 33L5 32L7 32L7 31ZM25 31L25 32L27 32L27 33L28 33L28 34L27 34L27 36L28 36L28 35L29 35L29 36L30 36L30 37L29 37L29 38L28 38L28 39L30 39L30 41L31 41L31 43L32 43L32 44L30 44L30 45L32 45L32 44L33 44L33 42L32 42L32 41L33 41L33 38L32 38L32 36L31 36L31 34L30 34L30 33L32 33L32 32L30 32L30 31L29 31L29 33L28 33L28 32L27 32L27 31ZM49 31L49 32L48 32L48 33L49 33L49 32L50 32L50 31ZM1 32L1 33L2 33L2 34L3 34L3 33L2 33L2 32ZM22 32L22 35L21 35L21 36L20 36L20 37L21 37L21 36L22 36L22 37L23 37L23 39L22 39L22 38L20 38L20 39L22 39L22 41L23 41L23 40L24 40L24 41L25 41L25 43L24 43L24 44L25 44L25 45L26 45L26 41L25 41L25 40L26 40L26 39L24 39L24 38L25 38L25 36L23 36L23 35L24 35L24 34L23 34L23 32ZM8 33L8 34L6 34L6 35L8 35L8 34L9 34L9 33ZM34 34L34 35L35 35L35 34ZM14 35L14 36L15 36L15 35ZM18 35L18 38L19 38L19 35ZM39 35L39 37L38 37L38 38L39 38L39 37L40 37L40 35ZM0 36L0 37L1 37L1 39L2 39L2 38L3 38L3 37L2 37L2 36ZM6 36L6 37L7 37L7 36ZM6 38L6 39L5 39L5 40L6 40L6 41L7 41L7 40L6 40L6 39L7 39L7 38ZM30 38L30 39L31 39L31 38ZM48 38L48 40L49 40L49 38ZM0 40L0 41L1 41L1 40ZM11 41L11 42L10 42L10 43L12 43L12 42L13 42L13 41ZM40 41L40 43L41 43L41 41ZM4 42L4 43L5 43L5 42ZM6 42L6 43L7 43L7 42ZM56 42L56 43L57 43L57 42ZM6 44L6 45L7 45L7 44ZM44 44L44 45L45 45L45 44ZM13 45L13 46L14 46L14 47L12 47L12 46L11 46L11 47L12 47L12 48L10 48L10 47L9 47L9 48L10 48L10 49L13 49L13 48L14 48L14 47L15 47L15 49L16 49L16 46L15 46L15 45ZM22 45L22 46L23 46L23 45ZM40 45L40 46L41 46L41 45ZM1 46L1 47L2 47L2 46ZM19 47L19 48L20 48L20 47ZM40 47L40 48L41 48L41 47ZM27 49L27 52L30 52L30 49ZM44 49L44 51L42 51L42 52L43 52L43 53L44 53L44 51L45 51L45 49ZM49 49L49 52L52 52L52 49ZM54 49L54 50L55 50L55 49ZM12 50L12 51L13 51L13 50ZM21 50L21 51L20 51L20 52L21 52L21 54L20 54L20 55L21 55L21 54L22 54L22 50ZM28 50L28 51L29 51L29 50ZM50 50L50 51L51 51L51 50ZM54 51L54 52L53 52L53 53L54 53L54 52L55 52L55 51ZM24 52L24 53L25 53L25 52ZM24 54L24 55L25 55L25 54ZM28 54L28 56L26 56L26 57L29 57L29 54ZM24 56L24 57L25 57L25 56ZM56 56L56 57L57 57L57 56ZM0 0L0 7L7 7L7 0ZM1 1L1 6L6 6L6 1ZM2 2L2 5L5 5L5 2ZM50 0L50 7L57 7L57 0ZM51 1L51 6L56 6L56 1ZM52 2L52 5L55 5L55 2ZM0 50L0 57L7 57L7 50ZM1 51L1 56L6 56L6 51ZM2 52L2 55L5 55L5 52Z" fill="#000000"/></g></g></svg>
