<?xml version="1.0" encoding="UTF-8"?>
<svg xmlns="http://www.w3.org/2000/svg" version="1.1" width="300" height="300" viewBox="0 0 300 300"><rect x="0" y="0" width="300" height="300" fill="#ffffff"/><g transform="scale(5.263)"><g transform="translate(0,0)"><path fill-rule="evenodd" d="M8 0L8 1L10 1L10 2L9 2L9 4L10 4L10 5L9 5L9 6L8 6L8 8L9 8L9 9L13 9L13 6L14 6L14 7L15 7L15 8L16 8L16 9L14 9L14 11L13 11L13 10L10 10L10 13L9 13L9 10L8 10L8 11L7 11L7 10L6 10L6 9L7 9L7 8L6 8L6 9L5 9L5 8L3 8L3 9L5 9L5 10L4 10L4 11L3 11L3 10L2 10L2 8L0 8L0 10L2 10L2 11L0 11L0 14L2 14L2 11L3 11L3 12L4 12L4 11L5 11L5 12L6 12L6 13L4 13L4 14L3 14L3 15L2 15L2 17L0 17L0 24L1 24L1 25L3 25L3 24L5 24L5 23L8 23L8 24L9 24L9 25L10 25L10 24L9 24L9 23L8 23L8 22L10 22L10 21L8 21L8 20L9 20L9 19L10 19L10 20L11 20L11 19L12 19L12 20L14 20L14 22L15 22L15 20L14 20L14 19L12 19L12 18L11 18L11 19L10 19L10 17L13 17L13 18L15 18L15 19L16 19L16 18L17 18L17 20L16 20L16 22L17 22L17 23L16 23L16 24L15 24L15 25L14 25L14 26L13 26L13 24L14 24L14 23L12 23L12 22L11 22L11 23L12 23L12 24L11 24L11 26L6 26L6 25L7 25L7 24L6 24L6 25L4 25L4 28L3 28L3 27L2 27L2 26L0 26L0 29L2 29L2 30L3 30L3 31L1 31L1 30L0 30L0 31L1 31L1 32L0 32L0 33L2 33L2 35L3 35L3 37L4 37L4 36L5 36L5 38L6 38L6 39L5 39L5 41L4 41L4 42L6 42L6 43L7 43L7 44L5 44L5 45L7 45L7 44L8 44L8 41L9 41L9 42L10 42L10 41L11 41L11 40L12 40L12 41L13 41L13 42L12 42L12 45L13 45L13 44L14 44L14 45L15 45L15 46L16 46L16 47L15 47L15 48L16 48L16 49L11 49L11 48L10 48L10 46L9 46L9 45L10 45L10 44L9 44L9 45L8 45L8 46L5 46L5 47L3 47L3 46L4 46L4 43L3 43L3 40L4 40L4 38L2 38L2 39L1 39L1 37L2 37L2 36L1 36L1 34L0 34L0 40L1 40L1 41L0 41L0 42L1 42L1 41L2 41L2 43L1 43L1 44L0 44L0 48L5 48L5 47L7 47L7 48L6 48L6 49L8 49L8 50L13 50L13 53L14 53L14 54L15 54L15 52L14 52L14 51L16 51L16 52L17 52L17 51L18 51L18 53L16 53L16 55L17 55L17 56L16 56L16 57L19 57L19 56L18 56L18 55L20 55L20 54L21 54L21 52L20 52L20 51L21 51L21 47L22 47L22 46L24 46L24 47L23 47L23 48L22 48L22 51L23 51L23 52L24 52L24 53L23 53L23 54L24 54L24 57L25 57L25 56L26 56L26 54L25 54L25 53L29 53L29 54L28 54L28 57L32 57L32 56L33 56L33 55L35 55L35 56L34 56L34 57L37 57L37 56L36 56L36 54L37 54L37 55L38 55L38 56L39 56L39 57L41 57L41 55L43 55L43 54L44 54L44 56L45 56L45 57L47 57L47 56L48 56L48 57L50 57L50 56L51 56L51 57L53 57L53 56L57 56L57 54L54 54L54 53L57 53L57 51L56 51L56 50L54 50L54 49L57 49L57 46L55 46L55 45L56 45L56 44L57 44L57 42L56 42L56 41L57 41L57 38L56 38L56 35L57 35L57 32L55 32L55 30L54 30L54 29L53 29L53 28L55 28L55 25L53 25L53 24L55 24L55 23L57 23L57 22L55 22L55 21L56 21L56 20L57 20L57 18L56 18L56 16L57 16L57 15L54 15L54 14L56 14L56 13L57 13L57 12L56 12L56 13L54 13L54 14L53 14L53 12L51 12L51 11L54 11L54 12L55 12L55 11L57 11L57 8L56 8L56 10L51 10L51 8L50 8L50 9L49 9L49 6L48 6L48 7L47 7L47 5L48 5L48 0L46 0L46 1L45 1L45 0L42 0L42 1L41 1L41 0L38 0L38 1L36 1L36 2L39 2L39 4L38 4L38 3L34 3L34 1L35 1L35 0L34 0L34 1L33 1L33 3L31 3L31 2L32 2L32 1L31 1L31 0L30 0L30 2L29 2L29 0L28 0L28 2L29 2L29 3L27 3L27 0L26 0L26 3L27 3L27 4L25 4L25 2L24 2L24 1L25 1L25 0L24 0L24 1L23 1L23 0L20 0L20 1L22 1L22 3L20 3L20 2L19 2L19 3L18 3L18 1L17 1L17 0L16 0L16 1L15 1L15 0L13 0L13 1L14 1L14 2L13 2L13 3L12 3L12 4L11 4L11 2L12 2L12 1L11 1L11 0ZM39 1L39 2L40 2L40 3L43 3L43 2L44 2L44 1L43 1L43 2L40 2L40 1ZM46 1L46 2L47 2L47 1ZM14 2L14 3L15 3L15 5L14 5L14 6L15 6L15 7L16 7L16 6L17 6L17 8L19 8L19 7L20 7L20 6L21 6L21 8L20 8L20 9L22 9L22 5L20 5L20 4L18 4L18 5L16 5L16 3L17 3L17 2L16 2L16 3L15 3L15 2ZM23 3L23 5L24 5L24 6L23 6L23 7L24 7L24 9L23 9L23 10L22 10L22 11L23 11L23 12L24 12L24 13L26 13L26 14L27 14L27 13L28 13L28 14L30 14L30 12L29 12L29 11L30 11L30 10L28 10L28 9L26 9L26 10L27 10L27 11L26 11L26 12L24 12L24 9L25 9L25 7L26 7L26 6L25 6L25 4L24 4L24 3ZM30 3L30 4L31 4L31 3ZM46 3L46 5L47 5L47 3ZM12 4L12 5L11 5L11 7L10 7L10 6L9 6L9 8L12 8L12 5L13 5L13 4ZM32 4L32 6L31 6L31 7L32 7L32 6L33 6L33 7L34 7L34 6L33 6L33 5L35 5L35 8L34 8L34 11L33 11L33 9L32 9L32 8L31 8L31 10L32 10L32 11L33 11L33 13L34 13L34 14L35 14L35 15L32 15L32 12L31 12L31 16L30 16L30 17L29 17L29 16L28 16L28 17L29 17L29 18L30 18L30 17L31 17L31 18L32 18L32 17L31 17L31 16L34 16L34 17L35 17L35 18L33 18L33 19L34 19L34 20L37 20L37 22L38 22L38 23L39 23L39 27L38 27L38 24L37 24L37 23L35 23L35 22L36 22L36 21L35 21L35 22L34 22L34 23L32 23L32 21L33 21L33 20L32 20L32 19L30 19L30 20L31 20L31 22L30 22L30 21L28 21L28 20L29 20L29 19L28 19L28 20L26 20L26 19L25 19L25 18L24 18L24 17L23 17L23 16L21 16L21 15L23 15L23 13L22 13L22 14L21 14L21 15L18 15L18 16L17 16L17 15L16 15L16 14L18 14L18 13L19 13L19 14L20 14L20 13L21 13L21 10L20 10L20 13L19 13L19 9L17 9L17 10L15 10L15 11L14 11L14 12L15 12L15 13L16 13L16 14L14 14L14 13L13 13L13 11L12 11L12 13L10 13L10 16L9 16L9 13L8 13L8 12L7 12L7 11L6 11L6 10L5 10L5 11L6 11L6 12L7 12L7 13L6 13L6 14L8 14L8 15L5 15L5 16L4 16L4 15L3 15L3 18L5 18L5 19L6 19L6 20L7 20L7 19L8 19L8 18L7 18L7 17L6 17L6 16L9 16L9 17L10 17L10 16L12 16L12 15L11 15L11 14L13 14L13 15L15 15L15 16L17 16L17 18L18 18L18 19L19 19L19 20L20 20L20 22L18 22L18 23L17 23L17 25L16 25L16 26L17 26L17 27L16 27L16 28L15 28L15 27L14 27L14 28L13 28L13 29L14 29L14 28L15 28L15 29L17 29L17 30L18 30L18 31L20 31L20 33L21 33L21 35L22 35L22 36L21 36L21 38L18 38L18 36L19 36L19 37L20 37L20 36L19 36L19 33L18 33L18 32L17 32L17 33L18 33L18 36L17 36L17 34L16 34L16 35L15 35L15 33L16 33L16 30L14 30L14 32L13 32L13 31L12 31L12 30L10 30L10 31L11 31L11 32L9 32L9 31L8 31L8 32L9 32L9 33L8 33L8 34L9 34L9 35L8 35L8 37L6 37L6 38L7 38L7 39L6 39L6 40L7 40L7 41L6 41L6 42L7 42L7 41L8 41L8 40L11 40L11 39L13 39L13 37L15 37L15 36L17 36L17 38L16 38L16 40L17 40L17 41L18 41L18 40L19 40L19 41L20 41L20 42L16 42L16 44L15 44L15 45L17 45L17 46L18 46L18 45L19 45L19 43L20 43L20 45L21 45L21 43L20 43L20 42L22 42L22 41L23 41L23 43L22 43L22 44L23 44L23 45L25 45L25 47L24 47L24 48L23 48L23 49L24 49L24 48L25 48L25 47L26 47L26 48L29 48L29 47L30 47L30 45L29 45L29 44L31 44L31 46L32 46L32 47L31 47L31 52L34 52L34 51L35 51L35 54L36 54L36 51L37 51L37 53L38 53L38 54L39 54L39 55L40 55L40 53L41 53L41 54L42 54L42 53L41 53L41 51L42 51L42 50L41 50L41 51L40 51L40 48L41 48L41 49L43 49L43 50L44 50L44 47L45 47L45 46L42 46L42 47L40 47L40 48L39 48L39 46L38 46L38 48L39 48L39 50L38 50L38 49L37 49L37 50L36 50L36 46L37 46L37 45L39 45L39 44L38 44L38 43L39 43L39 40L40 40L40 41L41 41L41 42L40 42L40 43L41 43L41 42L42 42L42 40L43 40L43 39L44 39L44 40L46 40L46 38L48 38L48 39L47 39L47 40L48 40L48 41L47 41L47 42L46 42L46 43L47 43L47 47L46 47L46 48L45 48L45 49L46 49L46 51L43 51L43 52L45 52L45 53L44 53L44 54L45 54L45 56L46 56L46 55L48 55L48 56L50 56L50 55L51 55L51 56L53 56L53 55L54 55L54 54L53 54L53 53L54 53L54 52L53 52L53 53L52 53L52 54L49 54L49 55L48 55L48 54L45 54L45 53L47 53L47 48L54 48L54 47L55 47L55 48L56 48L56 47L55 47L55 46L54 46L54 45L55 45L55 44L56 44L56 42L55 42L55 44L54 44L54 45L53 45L53 44L52 44L52 40L53 40L53 42L54 42L54 40L53 40L53 38L54 38L54 39L55 39L55 41L56 41L56 38L54 38L54 37L55 37L55 36L54 36L54 35L55 35L55 34L54 34L54 35L53 35L53 36L54 36L54 37L52 37L52 39L51 39L51 38L50 38L50 37L51 37L51 36L52 36L52 33L53 33L53 32L51 32L51 31L50 31L50 32L51 32L51 33L49 33L49 31L48 31L48 32L46 32L46 31L47 31L47 30L46 30L46 31L45 31L45 30L44 30L44 29L43 29L43 28L44 28L44 27L43 27L43 26L44 26L44 24L45 24L45 23L46 23L46 26L45 26L45 27L46 27L46 28L47 28L47 29L48 29L48 28L47 28L47 27L48 27L48 26L47 26L47 23L48 23L48 25L49 25L49 26L50 26L50 25L49 25L49 24L50 24L50 23L51 23L51 22L52 22L52 23L54 23L54 22L53 22L53 21L52 21L52 20L53 20L53 19L54 19L54 18L55 18L55 19L56 19L56 18L55 18L55 17L53 17L53 14L52 14L52 13L51 13L51 14L52 14L52 16L51 16L51 15L50 15L50 12L49 12L49 11L51 11L51 10L49 10L49 11L47 11L47 12L48 12L48 13L49 13L49 15L48 15L48 16L49 16L49 17L50 17L50 18L48 18L48 17L47 17L47 13L46 13L46 11L45 11L45 10L43 10L43 11L44 11L44 12L42 12L42 11L41 11L41 12L42 12L42 13L43 13L43 14L39 14L39 15L38 15L38 14L37 14L37 13L36 13L36 11L35 11L35 10L38 10L38 12L39 12L39 13L40 13L40 12L39 12L39 11L40 11L40 10L38 10L38 9L36 9L36 5L35 5L35 4ZM39 4L39 5L37 5L37 8L39 8L39 9L40 9L40 6L41 6L41 7L42 7L42 6L43 6L43 8L41 8L41 9L43 9L43 8L44 8L44 9L46 9L46 6L45 6L45 7L44 7L44 6L43 6L43 5L45 5L45 4L43 4L43 5L42 5L42 4ZM19 5L19 6L18 6L18 7L19 7L19 6L20 6L20 5ZM27 5L27 8L30 8L30 5ZM24 6L24 7L25 7L25 6ZM28 6L28 7L29 7L29 6ZM38 6L38 7L39 7L39 6ZM47 8L47 9L48 9L48 8ZM15 11L15 12L16 12L16 13L17 13L17 12L18 12L18 11L17 11L17 12L16 12L16 11ZM26 12L26 13L27 13L27 12ZM28 12L28 13L29 13L29 12ZM34 12L34 13L35 13L35 14L36 14L36 13L35 13L35 12ZM44 12L44 13L45 13L45 12ZM24 14L24 15L25 15L25 16L26 16L26 18L27 18L27 16L26 16L26 15L25 15L25 14ZM45 14L45 15L46 15L46 14ZM0 15L0 16L1 16L1 15ZM37 15L37 16L36 16L36 17L37 17L37 19L38 19L38 20L39 20L39 18L38 18L38 17L37 17L37 16L38 16L38 15ZM39 15L39 16L41 16L41 17L42 17L42 18L40 18L40 21L38 21L38 22L40 22L40 23L41 23L41 24L40 24L40 28L42 28L42 27L41 27L41 26L43 26L43 24L42 24L42 23L45 23L45 22L48 22L48 23L49 23L49 21L48 21L48 20L49 20L49 19L48 19L48 20L47 20L47 19L46 19L46 18L47 18L47 17L45 17L45 16L43 16L43 15ZM13 16L13 17L14 17L14 16ZM18 16L18 18L20 18L20 17L19 17L19 16ZM44 17L44 18L43 18L43 19L41 19L41 21L43 21L43 19L44 19L44 21L45 21L45 20L46 20L46 21L47 21L47 20L46 20L46 19L44 19L44 18L45 18L45 17ZM51 17L51 18L50 18L50 19L53 19L53 17ZM6 18L6 19L7 19L7 18ZM21 18L21 19L20 19L20 20L21 20L21 19L22 19L22 21L21 21L21 23L19 23L19 24L18 24L18 25L17 25L17 26L18 26L18 27L17 27L17 29L18 29L18 30L20 30L20 31L21 31L21 30L20 30L20 29L19 29L19 28L20 28L20 27L19 27L19 24L20 24L20 26L24 26L24 27L23 27L23 28L22 28L22 30L23 30L23 28L25 28L25 23L28 23L28 21L26 21L26 22L25 22L25 19L24 19L24 18ZM2 19L2 20L3 20L3 19ZM50 20L50 22L51 22L51 20ZM1 21L1 24L2 24L2 22L3 22L3 23L4 23L4 22L5 22L5 21L4 21L4 22L3 22L3 21ZM6 21L6 22L7 22L7 21ZM23 21L23 23L24 23L24 21ZM41 22L41 23L42 23L42 22ZM29 23L29 24L28 24L28 25L27 25L27 24L26 24L26 29L24 29L24 31L25 31L25 32L23 32L23 31L22 31L22 34L24 34L24 36L22 36L22 37L23 37L23 38L21 38L21 39L20 39L20 41L21 41L21 39L23 39L23 40L24 40L24 42L25 42L25 44L26 44L26 45L27 45L27 47L28 47L28 46L29 46L29 45L28 45L28 43L29 43L29 42L30 42L30 43L31 43L31 42L30 42L30 41L32 41L32 42L33 42L33 43L32 43L32 44L33 44L33 47L32 47L32 50L33 50L33 51L34 51L34 48L35 48L35 47L34 47L34 46L36 46L36 45L37 45L37 43L38 43L38 41L37 41L37 40L34 40L34 39L33 39L33 36L34 36L34 37L35 37L35 35L39 35L39 33L37 33L37 32L38 32L38 29L39 29L39 28L38 28L38 27L37 27L37 24L35 24L35 23L34 23L34 25L36 25L36 27L37 27L37 28L36 28L36 29L34 29L34 30L35 30L35 31L37 31L37 32L33 32L33 30L32 30L32 31L31 31L31 29L33 29L33 27L32 27L32 26L33 26L33 24L32 24L32 23L31 23L31 25L30 25L30 23ZM23 24L23 25L24 25L24 24ZM41 24L41 25L42 25L42 24ZM51 24L51 26L52 26L52 24ZM31 25L31 26L32 26L32 25ZM56 25L56 26L57 26L57 25ZM11 26L11 27L10 27L10 29L11 29L11 28L12 28L12 27L13 27L13 26ZM34 26L34 27L35 27L35 26ZM46 26L46 27L47 27L47 26ZM53 26L53 27L54 27L54 26ZM5 27L5 30L8 30L8 27ZM27 27L27 30L30 30L30 27ZM31 27L31 28L32 28L32 27ZM49 27L49 30L52 30L52 27ZM6 28L6 29L7 29L7 28ZM28 28L28 29L29 29L29 28ZM50 28L50 29L51 29L51 28ZM3 29L3 30L4 30L4 29ZM36 29L36 30L37 30L37 29ZM40 29L40 30L39 30L39 32L40 32L40 33L41 33L41 36L40 36L40 37L39 37L39 36L36 36L36 37L38 37L38 38L41 38L41 39L43 39L43 38L44 38L44 39L45 39L45 38L46 38L46 37L45 37L45 36L47 36L47 37L48 37L48 38L49 38L49 37L50 37L50 36L49 36L49 37L48 37L48 36L47 36L47 34L48 34L48 33L46 33L46 32L45 32L45 31L44 31L44 30L43 30L43 29L42 29L42 30L41 30L41 29ZM42 30L42 32L43 32L43 35L42 35L42 36L41 36L41 37L42 37L42 36L43 36L43 37L44 37L44 38L45 38L45 37L44 37L44 36L43 36L43 35L44 35L44 34L45 34L45 32L43 32L43 30ZM53 30L53 31L54 31L54 30ZM56 30L56 31L57 31L57 30ZM3 31L3 32L2 32L2 33L3 33L3 34L4 34L4 32L5 32L5 33L6 33L6 34L5 34L5 36L7 36L7 35L6 35L6 34L7 34L7 33L6 33L6 32L7 32L7 31ZM26 31L26 33L25 33L25 34L26 34L26 33L28 33L28 32L27 32L27 31ZM40 31L40 32L41 32L41 31ZM11 32L11 34L14 34L14 33L13 33L13 32ZM30 32L30 33L29 33L29 34L27 34L27 36L29 36L29 38L28 38L28 40L27 40L27 39L26 39L26 38L27 38L27 37L26 37L26 38L25 38L25 37L24 37L24 38L23 38L23 39L24 39L24 40L25 40L25 39L26 39L26 43L28 43L28 40L29 40L29 38L31 38L31 40L32 40L32 41L33 41L33 40L32 40L32 38L31 38L31 37L32 37L32 36L31 36L31 37L30 37L30 36L29 36L29 35L31 35L31 34L32 34L32 35L34 35L34 33L33 33L33 32ZM54 32L54 33L55 33L55 32ZM9 33L9 34L10 34L10 33ZM35 33L35 34L37 34L37 33ZM49 34L49 35L51 35L51 34ZM9 35L9 36L10 36L10 37L11 37L11 38L10 38L10 39L11 39L11 38L12 38L12 36L11 36L11 35ZM13 35L13 36L14 36L14 35ZM25 35L25 36L26 36L26 35ZM8 38L8 39L9 39L9 38ZM14 38L14 39L15 39L15 38ZM2 39L2 40L3 40L3 39ZM38 39L38 40L39 40L39 39ZM49 39L49 42L50 42L50 43L49 43L49 44L48 44L48 47L51 47L51 46L53 46L53 45L52 45L52 44L51 44L51 46L49 46L49 45L50 45L50 43L51 43L51 41L50 41L50 40L51 40L51 39ZM13 40L13 41L14 41L14 42L15 42L15 40ZM34 41L34 42L37 42L37 41ZM43 41L43 42L44 42L44 43L42 43L42 45L46 45L46 44L44 44L44 43L45 43L45 42L44 42L44 41ZM47 42L47 43L48 43L48 42ZM2 43L2 44L1 44L1 45L2 45L2 44L3 44L3 43ZM23 43L23 44L24 44L24 43ZM34 43L34 45L35 45L35 43ZM17 44L17 45L18 45L18 44ZM1 46L1 47L2 47L2 46ZM8 46L8 47L9 47L9 46ZM11 46L11 47L12 47L12 46ZM19 46L19 47L18 47L18 48L17 48L17 49L16 49L16 50L17 50L17 49L18 49L18 50L20 50L20 49L18 49L18 48L20 48L20 47L21 47L21 46ZM42 47L42 48L43 48L43 47ZM9 48L9 49L10 49L10 48ZM27 49L27 52L30 52L30 49ZM49 49L49 52L52 52L52 49ZM25 50L25 51L24 51L24 52L26 52L26 50ZM28 50L28 51L29 51L29 50ZM50 50L50 51L51 51L51 50ZM53 50L53 51L54 51L54 50ZM9 51L9 52L8 52L8 54L9 54L9 55L8 55L8 57L11 57L11 56L12 56L12 57L13 57L13 56L15 56L15 55L10 55L10 54L11 54L11 53L12 53L12 51ZM39 51L39 53L40 53L40 51ZM9 52L9 54L10 54L10 52ZM19 52L19 53L18 53L18 54L17 54L17 55L18 55L18 54L19 54L19 53L20 53L20 52ZM32 53L32 55L31 55L31 56L32 56L32 55L33 55L33 53ZM29 54L29 56L30 56L30 54ZM52 54L52 55L53 55L53 54ZM9 55L9 56L10 56L10 55ZM21 55L21 56L20 56L20 57L21 57L21 56L22 56L22 57L23 57L23 56L22 56L22 55ZM0 0L0 7L7 7L7 0ZM1 1L1 6L6 6L6 1ZM2 2L2 5L5 5L5 2ZM50 0L50 7L57 7L57 0ZM51 1L51 6L56 6L56 1ZM52 2L52 5L55 5L55 2ZM0 50L0 57L7 57L7 50ZM1 51L1 56L6 56L6 51ZM2 52L2 55L5 55L5 52Z" fill="#000000"/></g></g></svg>
