<?xml version="1.0" encoding="UTF-8"?>
<svg xmlns="http://www.w3.org/2000/svg" version="1.1" width="300" height="300" viewBox="0 0 300 300"><rect x="0" y="0" width="300" height="300" fill="#ffffff"/><g transform="scale(5.263)"><g transform="translate(0,0)"><path fill-rule="evenodd" d="M8 0L8 2L9 2L9 4L8 4L8 9L9 9L9 10L8 10L8 12L5 12L5 13L7 13L7 14L6 14L6 15L5 15L5 14L4 14L4 12L3 12L3 11L4 11L4 9L3 9L3 8L0 8L0 9L2 9L2 10L3 10L3 11L0 11L0 12L1 12L1 13L2 13L2 12L3 12L3 14L1 14L1 15L0 15L0 16L2 16L2 17L0 17L0 18L2 18L2 17L5 17L5 19L7 19L7 20L4 20L4 18L3 18L3 20L2 20L2 19L0 19L0 22L1 22L1 23L0 23L0 24L1 24L1 23L2 23L2 25L3 25L3 22L6 22L6 23L7 23L7 24L6 24L6 25L8 25L8 26L5 26L5 25L4 25L4 26L1 26L1 28L0 28L0 30L1 30L1 31L0 31L0 32L2 32L2 33L1 33L1 34L0 34L0 37L1 37L1 38L0 38L0 39L1 39L1 38L2 38L2 39L7 39L7 38L5 38L5 37L7 37L7 36L6 36L6 35L7 35L7 34L8 34L8 35L10 35L10 37L9 37L9 36L8 36L8 38L10 38L10 37L11 37L11 39L10 39L10 40L9 40L9 39L8 39L8 40L5 40L5 42L6 42L6 43L5 43L5 44L3 44L3 46L2 46L2 47L1 47L1 45L2 45L2 44L1 44L1 42L0 42L0 48L5 48L5 47L7 47L7 46L6 46L6 45L8 45L8 47L9 47L9 48L6 48L6 49L8 49L8 50L9 50L9 48L10 48L10 49L11 49L11 50L10 50L10 51L8 51L8 52L13 52L13 51L14 51L14 49L11 49L11 48L10 48L10 47L11 47L11 46L12 46L12 47L13 47L13 48L14 48L14 47L13 47L13 46L12 46L12 45L13 45L13 44L14 44L14 46L15 46L15 44L17 44L17 42L19 42L19 43L18 43L18 44L19 44L19 46L16 46L16 47L15 47L15 48L17 48L17 47L20 47L20 49L19 49L19 48L18 48L18 49L17 49L17 50L16 50L16 49L15 49L15 52L14 52L14 54L12 54L12 53L9 53L9 54L8 54L8 57L14 57L14 56L15 56L15 57L16 57L16 56L15 56L15 55L14 55L14 54L15 54L15 52L16 52L16 53L17 53L17 52L16 52L16 51L18 51L18 53L19 53L19 55L18 55L18 54L16 54L16 55L18 55L18 57L19 57L19 56L22 56L22 57L23 57L23 52L24 52L24 53L25 53L25 52L24 52L24 51L25 51L25 50L22 50L22 49L23 49L23 46L24 46L24 48L25 48L25 49L26 49L26 53L27 53L27 54L28 54L28 55L29 55L29 53L31 53L31 54L30 54L30 55L31 55L31 56L30 56L30 57L33 57L33 56L32 56L32 53L33 53L33 55L35 55L35 56L34 56L34 57L35 57L35 56L36 56L36 57L37 57L37 56L38 56L38 57L42 57L42 56L44 56L44 57L50 57L50 54L52 54L52 55L53 55L53 56L51 56L51 57L53 57L53 56L54 56L54 57L55 57L55 56L54 56L54 55L53 55L53 54L55 54L55 55L57 55L57 54L55 54L55 52L56 52L56 53L57 53L57 52L56 52L56 51L57 51L57 48L56 48L56 47L57 47L57 45L56 45L56 43L57 43L57 42L56 42L56 43L55 43L55 42L54 42L54 41L57 41L57 40L54 40L54 39L55 39L55 37L56 37L56 38L57 38L57 37L56 37L56 35L57 35L57 34L56 34L56 33L57 33L57 32L56 32L56 31L57 31L57 30L56 30L56 31L55 31L55 29L54 29L54 31L53 31L53 28L54 28L54 27L55 27L55 26L56 26L56 28L57 28L57 26L56 26L56 25L55 25L55 26L54 26L54 22L55 22L55 21L56 21L56 23L57 23L57 20L54 20L54 18L56 18L56 19L57 19L57 18L56 18L56 17L55 17L55 16L54 16L54 15L52 15L52 14L53 14L53 12L54 12L54 11L55 11L55 9L57 9L57 8L55 8L55 9L54 9L54 10L53 10L53 8L49 8L49 6L48 6L48 8L47 8L47 5L48 5L48 0L42 0L42 1L41 1L41 2L42 2L42 3L43 3L43 4L42 4L42 7L41 7L41 4L40 4L40 1L39 1L39 0L38 0L38 1L37 1L37 0L36 0L36 1L37 1L37 3L38 3L38 5L39 5L39 4L40 4L40 9L39 9L39 10L40 10L40 9L41 9L41 11L40 11L40 13L39 13L39 12L38 12L38 11L37 11L37 9L38 9L38 8L39 8L39 6L38 6L38 7L37 7L37 6L36 6L36 5L37 5L37 4L36 4L36 2L35 2L35 0L34 0L34 2L35 2L35 4L34 4L34 3L33 3L33 4L32 4L32 2L31 2L31 1L32 1L32 0L30 0L30 2L29 2L29 0L28 0L28 2L29 2L29 4L28 4L28 3L26 3L26 5L24 5L24 7L23 7L23 6L22 6L22 7L21 7L21 6L20 6L20 5L22 5L22 3L25 3L25 2L26 2L26 1L27 1L27 0L26 0L26 1L25 1L25 0L24 0L24 1L23 1L23 0L22 0L22 3L21 3L21 4L20 4L20 3L19 3L19 5L18 5L18 3L17 3L17 5L16 5L16 7L15 7L15 4L14 4L14 3L16 3L16 2L19 2L19 1L17 1L17 0L16 0L16 1L15 1L15 0L13 0L13 1L12 1L12 0ZM20 0L20 1L21 1L21 0ZM10 1L10 2L11 2L11 3L10 3L10 4L9 4L9 5L10 5L10 4L11 4L11 7L12 7L12 5L13 5L13 8L12 8L12 9L11 9L11 8L9 8L9 9L11 9L11 11L10 11L10 10L9 10L9 12L8 12L8 14L9 14L9 16L7 16L7 15L6 15L6 16L7 16L7 17L6 17L6 18L7 18L7 19L8 19L8 21L6 21L6 22L7 22L7 23L10 23L10 24L8 24L8 25L10 25L10 24L11 24L11 23L13 23L13 24L17 24L17 25L16 25L16 26L15 26L15 25L14 25L14 26L13 26L13 27L12 27L12 25L11 25L11 27L12 27L12 30L14 30L14 32L13 32L13 31L11 31L11 32L10 32L10 30L11 30L11 29L9 29L9 31L6 31L6 32L5 32L5 31L4 31L4 32L3 32L3 28L4 28L4 27L2 27L2 29L1 29L1 30L2 30L2 32L3 32L3 35L4 35L4 36L5 36L5 35L6 35L6 34L7 34L7 33L8 33L8 34L10 34L10 33L11 33L11 34L13 34L13 35L11 35L11 36L12 36L12 37L13 37L13 38L12 38L12 39L11 39L11 41L12 41L12 42L13 42L13 41L15 41L15 36L16 36L16 35L15 35L15 36L14 36L14 37L13 37L13 35L14 35L14 34L15 34L15 33L14 33L14 32L15 32L15 30L14 30L14 29L15 29L15 28L16 28L16 26L19 26L19 25L20 25L20 27L18 27L18 28L20 28L20 30L19 30L19 29L18 29L18 30L19 30L19 31L18 31L18 32L19 32L19 33L20 33L20 34L17 34L17 33L16 33L16 34L17 34L17 37L18 37L18 35L19 35L19 38L16 38L16 39L18 39L18 40L16 40L16 42L17 42L17 41L18 41L18 40L19 40L19 41L20 41L20 42L22 42L22 40L23 40L23 41L24 41L24 43L22 43L22 44L24 44L24 46L26 46L26 47L27 47L27 45L28 45L28 46L29 46L29 47L28 47L28 48L31 48L31 49L32 49L32 50L31 50L31 53L32 53L32 50L33 50L33 49L32 49L32 47L33 47L33 48L34 48L34 47L33 47L33 45L32 45L32 44L33 44L33 42L32 42L32 41L33 41L33 37L32 37L32 36L34 36L34 39L35 39L35 40L34 40L34 41L35 41L35 40L36 40L36 39L37 39L37 40L38 40L38 44L37 44L37 43L36 43L36 44L35 44L35 43L34 43L34 46L36 46L36 44L37 44L37 45L38 45L38 46L37 46L37 47L36 47L36 48L35 48L35 49L34 49L34 51L35 51L35 53L34 53L34 52L33 52L33 53L34 53L34 54L35 54L35 53L36 53L36 55L38 55L38 56L39 56L39 55L40 55L40 54L41 54L41 53L38 53L38 52L37 52L37 51L39 51L39 50L41 50L41 52L42 52L42 54L43 54L43 55L44 55L44 56L46 56L46 55L48 55L48 54L50 54L50 53L46 53L46 52L47 52L47 51L48 51L48 50L47 50L47 48L45 48L45 49L44 49L44 47L43 47L43 45L44 45L44 46L45 46L45 45L46 45L46 47L48 47L48 46L49 46L49 48L52 48L52 46L53 46L53 47L54 47L54 48L55 48L55 49L53 49L53 50L54 50L54 52L55 52L55 49L56 49L56 48L55 48L55 43L54 43L54 44L52 44L52 46L51 46L51 47L50 47L50 45L46 45L46 44L45 44L45 42L44 42L44 40L43 40L43 41L42 41L42 39L45 39L45 40L46 40L46 43L47 43L47 44L48 44L48 43L49 43L49 44L50 44L50 42L48 42L48 41L52 41L52 43L53 43L53 41L52 41L52 40L53 40L53 39L54 39L54 37L55 37L55 35L56 35L56 34L55 34L55 33L56 33L56 32L55 32L55 31L54 31L54 32L50 32L50 31L49 31L49 32L48 32L48 33L49 33L49 34L47 34L47 32L46 32L46 31L47 31L47 30L48 30L48 28L46 28L46 31L45 31L45 29L44 29L44 28L45 28L45 27L46 27L46 26L47 26L47 24L46 24L46 26L45 26L45 25L44 25L44 24L45 24L45 23L44 23L44 22L45 22L45 21L44 21L44 22L43 22L43 21L42 21L42 18L43 18L43 20L44 20L44 18L43 18L43 17L44 17L44 16L42 16L42 15L44 15L44 14L46 14L46 15L45 15L45 17L46 17L46 19L47 19L47 20L46 20L46 22L47 22L47 20L48 20L48 23L49 23L49 24L48 24L48 26L49 26L49 24L50 24L50 23L52 23L52 24L51 24L51 25L50 25L50 26L52 26L52 24L53 24L53 23L52 23L52 22L51 22L51 21L52 21L52 20L53 20L53 18L54 18L54 17L52 17L52 16L51 16L51 17L50 17L50 18L51 18L51 19L52 19L52 20L49 20L49 17L48 17L48 18L47 18L47 17L46 17L46 15L48 15L48 14L49 14L49 16L50 16L50 15L51 15L51 14L52 14L52 13L50 13L50 12L52 12L52 11L53 11L53 10L52 10L52 9L50 9L50 11L49 11L49 12L48 12L48 14L47 14L47 13L46 13L46 12L47 12L47 9L46 9L46 5L47 5L47 3L46 3L46 5L45 5L45 2L44 2L44 1L43 1L43 2L44 2L44 5L45 5L45 9L44 9L44 11L42 11L42 15L41 15L41 13L40 13L40 14L39 14L39 13L36 13L36 12L37 12L37 11L36 11L36 10L35 10L35 13L34 13L34 11L33 11L33 10L32 10L32 9L33 9L33 7L34 7L34 4L33 4L33 5L32 5L32 4L31 4L31 5L32 5L32 6L31 6L31 9L30 9L30 10L31 10L31 11L29 11L29 15L28 15L28 16L30 16L30 18L29 18L29 17L28 17L28 18L29 18L29 19L28 19L28 20L27 20L27 19L26 19L26 20L27 20L27 21L24 21L24 20L25 20L25 17L26 17L26 18L27 18L27 14L28 14L28 13L27 13L27 11L28 11L28 10L29 10L29 9L25 9L25 8L26 8L26 6L25 6L25 8L23 8L23 7L22 7L22 8L21 8L21 7L20 7L20 6L19 6L19 8L21 8L21 9L20 9L20 10L23 10L23 11L22 11L22 12L24 12L24 14L23 14L23 13L22 13L22 14L23 14L23 15L24 15L24 16L25 16L25 17L24 17L24 19L23 19L23 21L22 21L22 19L21 19L21 18L23 18L23 17L22 17L22 16L20 16L20 15L21 15L21 11L20 11L20 15L18 15L18 16L16 16L16 19L17 19L17 18L18 18L18 20L17 20L17 21L16 21L16 20L14 20L14 19L15 19L15 18L14 18L14 16L15 16L15 15L17 15L17 14L19 14L19 12L18 12L18 11L19 11L19 10L18 10L18 5L17 5L17 8L15 8L15 9L16 9L16 10L15 10L15 11L14 11L14 12L15 12L15 11L16 11L16 10L17 10L17 13L16 13L16 14L15 14L15 13L14 13L14 14L13 14L13 13L12 13L12 12L13 12L13 10L14 10L14 5L13 5L13 4L11 4L11 3L13 3L13 2L11 2L11 1ZM14 1L14 2L15 2L15 1ZM38 1L38 3L39 3L39 1ZM46 1L46 2L47 2L47 1ZM30 2L30 3L31 3L31 2ZM27 5L27 8L30 8L30 5ZM9 6L9 7L10 7L10 6ZM28 6L28 7L29 7L29 6ZM32 6L32 7L33 7L33 6ZM35 6L35 8L34 8L34 9L35 9L35 8L37 8L37 7L36 7L36 6ZM43 6L43 7L42 7L42 10L43 10L43 7L44 7L44 6ZM5 8L5 9L7 9L7 8ZM22 8L22 9L23 9L23 8ZM45 9L45 11L44 11L44 13L45 13L45 11L46 11L46 9ZM48 9L48 10L49 10L49 9ZM6 10L6 11L7 11L7 10ZM24 10L24 11L25 11L25 12L26 12L26 11L27 11L27 10ZM51 10L51 11L52 11L52 10ZM56 10L56 11L57 11L57 10ZM32 11L32 15L34 15L34 16L35 16L35 14L36 14L36 17L35 17L35 18L34 18L34 17L33 17L33 16L32 16L32 17L33 17L33 18L34 18L34 19L31 19L31 18L30 18L30 19L31 19L31 20L30 20L30 21L29 21L29 20L28 20L28 21L27 21L27 22L26 22L26 23L28 23L28 26L24 26L24 25L25 25L25 24L22 24L22 23L20 23L20 22L22 22L22 21L21 21L21 20L20 20L20 19L19 19L19 20L18 20L18 21L19 21L19 24L18 24L18 25L19 25L19 24L20 24L20 25L21 25L21 26L22 26L22 25L23 25L23 27L22 27L22 28L24 28L24 27L26 27L26 28L25 28L25 30L24 30L24 29L23 29L23 30L24 30L24 33L23 33L23 32L22 32L22 33L23 33L23 34L22 34L22 35L21 35L21 36L20 36L20 37L21 37L21 36L22 36L22 37L23 37L23 38L22 38L22 39L23 39L23 40L24 40L24 41L25 41L25 43L24 43L24 44L26 44L26 45L27 45L27 44L26 44L26 41L25 41L25 40L27 40L27 43L28 43L28 40L29 40L29 42L30 42L30 43L29 43L29 44L28 44L28 45L30 45L30 47L31 47L31 46L32 46L32 45L30 45L30 44L31 44L31 41L30 41L30 40L31 40L31 38L30 38L30 37L31 37L31 36L32 36L32 35L31 35L31 36L30 36L30 37L29 37L29 36L27 36L27 35L28 35L28 32L25 32L25 30L26 30L26 31L30 31L30 32L31 32L31 27L33 27L33 26L32 26L32 25L33 25L33 24L32 24L32 23L33 23L33 22L34 22L34 23L35 23L35 24L34 24L34 25L37 25L37 26L34 26L34 29L35 29L35 31L34 31L34 33L33 33L33 30L32 30L32 34L34 34L34 33L35 33L35 32L36 32L36 34L35 34L35 36L36 36L36 38L35 38L35 39L36 39L36 38L37 38L37 39L39 39L39 38L42 38L42 37L43 37L43 36L44 36L44 38L45 38L45 39L47 39L47 38L46 38L46 37L48 37L48 36L50 36L50 35L51 35L51 34L50 34L50 35L47 35L47 36L46 36L46 32L44 32L44 29L43 29L43 32L44 32L44 33L43 33L43 35L42 35L42 37L41 37L41 35L40 35L40 33L42 33L42 32L40 32L40 33L39 33L39 32L37 32L37 31L38 31L38 29L39 29L39 31L42 31L42 29L41 29L41 28L44 28L44 25L43 25L43 22L42 22L42 21L41 21L41 19L40 19L40 21L39 21L39 22L40 22L40 21L41 21L41 22L42 22L42 25L41 25L41 23L40 23L40 27L41 27L41 28L40 28L40 29L39 29L39 27L37 27L37 26L38 26L38 25L39 25L39 23L38 23L38 20L39 20L39 18L40 18L40 17L41 17L41 18L42 18L42 16L40 16L40 17L39 17L39 18L38 18L38 16L39 16L39 15L38 15L38 16L37 16L37 14L36 14L36 13L35 13L35 14L34 14L34 13L33 13L33 11ZM9 12L9 13L10 13L10 14L11 14L11 16L9 16L9 17L8 17L8 19L9 19L9 21L10 21L10 22L11 22L11 21L12 21L12 22L13 22L13 20L10 20L10 19L13 19L13 15L12 15L12 13L11 13L11 12ZM30 12L30 13L31 13L31 12ZM56 12L56 13L55 13L55 14L56 14L56 16L57 16L57 12ZM26 13L26 14L25 14L25 15L26 15L26 14L27 14L27 13ZM49 13L49 14L50 14L50 13ZM30 14L30 15L31 15L31 14ZM3 15L3 16L4 16L4 15ZM11 16L11 17L10 17L10 18L9 18L9 19L10 19L10 18L11 18L11 17L12 17L12 16ZM18 16L18 18L20 18L20 16ZM51 17L51 18L52 18L52 17ZM35 18L35 21L34 21L34 20L33 20L33 21L34 21L34 22L37 22L37 21L36 21L36 18ZM37 18L37 19L38 19L38 18ZM1 20L1 21L2 21L2 20ZM3 20L3 21L4 21L4 20ZM31 20L31 21L30 21L30 23L32 23L32 20ZM28 21L28 23L29 23L29 21ZM53 21L53 22L54 22L54 21ZM14 22L14 23L15 23L15 22ZM16 22L16 23L17 23L17 22ZM24 22L24 23L25 23L25 22ZM49 22L49 23L50 23L50 22ZM21 24L21 25L22 25L22 24ZM26 24L26 25L27 25L27 24ZM30 24L30 26L31 26L31 24ZM37 24L37 25L38 25L38 24ZM42 25L42 27L43 27L43 25ZM14 26L14 28L15 28L15 26ZM5 27L5 30L8 30L8 27ZM9 27L9 28L10 28L10 27ZM20 27L20 28L21 28L21 27ZM27 27L27 30L30 30L30 27ZM49 27L49 30L52 30L52 27ZM6 28L6 29L7 29L7 28ZM28 28L28 29L29 29L29 28ZM32 28L32 29L33 29L33 28ZM37 28L37 29L36 29L36 30L37 30L37 29L38 29L38 28ZM50 28L50 29L51 29L51 28ZM16 29L16 30L17 30L17 29ZM40 29L40 30L41 30L41 29ZM20 30L20 33L21 33L21 31L22 31L22 30ZM16 31L16 32L17 32L17 31ZM4 32L4 34L6 34L6 33L7 33L7 32L6 32L6 33L5 33L5 32ZM11 32L11 33L12 33L12 32ZM49 32L49 33L50 33L50 32ZM13 33L13 34L14 34L14 33ZM24 33L24 34L25 34L25 35L23 35L23 36L26 36L26 37L25 37L25 38L24 38L24 39L27 39L27 38L26 38L26 37L27 37L27 36L26 36L26 34L27 34L27 33ZM30 33L30 34L31 34L31 33ZM38 33L38 34L39 34L39 33ZM44 33L44 34L45 34L45 33ZM1 34L1 36L2 36L2 37L3 37L3 38L4 38L4 37L3 37L3 36L2 36L2 34ZM36 34L36 35L37 35L37 34ZM54 34L54 35L55 35L55 34ZM39 35L39 37L38 37L38 36L37 36L37 37L38 37L38 38L39 38L39 37L40 37L40 35ZM51 36L51 37L50 37L50 39L49 39L49 38L48 38L48 40L47 40L47 41L48 41L48 40L50 40L50 39L51 39L51 40L52 40L52 39L51 39L51 38L52 38L52 37L53 37L53 36ZM13 38L13 40L14 40L14 38ZM20 38L20 39L21 39L21 38ZM28 38L28 39L29 39L29 40L30 40L30 38ZM40 39L40 40L39 40L39 44L38 44L38 45L39 45L39 47L37 47L37 48L36 48L36 49L35 49L35 51L37 51L37 49L39 49L39 47L40 47L40 45L41 45L41 47L42 47L42 45L41 45L41 44L44 44L44 45L45 45L45 44L44 44L44 42L42 42L42 41L41 41L41 39ZM0 40L0 41L1 41L1 40ZM3 40L3 41L2 41L2 42L4 42L4 40ZM8 40L8 41L6 41L6 42L8 42L8 45L9 45L9 47L10 47L10 45L9 45L9 44L11 44L11 45L12 45L12 43L11 43L11 42L10 42L10 41L9 41L9 40ZM20 40L20 41L21 41L21 40ZM8 41L8 42L9 42L9 43L10 43L10 42L9 42L9 41ZM40 41L40 43L41 43L41 41ZM14 42L14 43L15 43L15 42ZM6 43L6 44L5 44L5 45L6 45L6 44L7 44L7 43ZM19 43L19 44L20 44L20 43ZM20 45L20 47L21 47L21 49L20 49L20 50L18 50L18 51L20 51L20 52L21 52L21 54L20 54L20 55L22 55L22 50L21 50L21 49L22 49L22 47L21 47L21 45ZM22 45L22 46L23 46L23 45ZM3 46L3 47L5 47L5 46ZM40 48L40 49L41 49L41 50L42 50L42 49L43 49L43 51L42 51L42 52L43 52L43 51L44 51L44 53L43 53L43 54L44 54L44 55L45 55L45 54L44 54L44 53L45 53L45 52L46 52L46 49L45 49L45 51L44 51L44 49L43 49L43 48ZM27 49L27 52L30 52L30 49ZM49 49L49 52L52 52L52 49ZM11 50L11 51L12 51L12 50ZM20 50L20 51L21 51L21 50ZM28 50L28 51L29 51L29 50ZM50 50L50 51L51 51L51 50ZM36 52L36 53L37 53L37 52ZM10 54L10 56L11 56L11 55L12 55L12 54ZM24 54L24 55L26 55L26 57L27 57L27 55L26 55L26 54ZM13 55L13 56L14 56L14 55ZM41 55L41 56L42 56L42 55ZM24 56L24 57L25 57L25 56ZM28 56L28 57L29 57L29 56ZM56 56L56 57L57 57L57 56ZM0 0L0 7L7 7L7 0ZM1 1L1 6L6 6L6 1ZM2 2L2 5L5 5L5 2ZM50 0L50 7L57 7L57 0ZM51 1L51 6L56 6L56 1ZM52 2L52 5L55 5L55 2ZM0 50L0 57L7 57L7 50ZM1 51L1 56L6 56L6 51ZM2 52L2 55L5 55L5 52Z" fill="#000000"/></g></g></svg>
