<?xml version="1.0" encoding="UTF-8"?>
<svg xmlns="http://www.w3.org/2000/svg" version="1.1" width="300" height="300" viewBox="0 0 300 300"><rect x="0" y="0" width="300" height="300" fill="#ffffff"/><g transform="scale(12)"><g transform="translate(0,0)"><path fill-rule="evenodd" d="M8 0L8 4L9 4L9 5L8 5L8 7L9 7L9 6L10 6L10 9L11 9L11 10L8 10L8 9L7 9L7 8L4 8L4 9L3 9L3 10L1 10L1 9L2 9L2 8L0 8L0 12L1 12L1 13L0 13L0 14L1 14L1 13L3 13L3 10L4 10L4 15L3 15L3 14L2 14L2 15L3 15L3 16L4 16L4 15L7 15L7 16L6 16L6 17L7 17L7 16L8 16L8 15L9 15L9 17L8 17L8 18L9 18L9 19L8 19L8 21L9 21L9 22L10 22L10 21L9 21L9 20L10 20L10 15L14 15L14 16L15 16L15 17L13 17L13 18L12 18L12 17L11 17L11 20L12 20L12 21L11 21L11 23L10 23L10 24L9 24L9 23L8 23L8 25L11 25L11 23L12 23L12 21L13 21L13 18L14 18L14 19L15 19L15 17L16 17L16 22L17 22L17 25L19 25L19 24L22 24L22 25L25 25L25 24L24 24L24 22L25 22L25 21L24 21L24 19L21 19L21 17L23 17L23 16L24 16L24 15L23 15L23 14L24 14L24 13L25 13L25 12L24 12L24 11L23 11L23 10L24 10L24 9L25 9L25 8L21 8L21 9L20 9L20 8L19 8L19 9L20 9L20 10L18 10L18 12L17 12L17 13L14 13L14 14L13 14L13 12L12 12L12 10L13 10L13 11L14 11L14 12L16 12L16 10L17 10L17 9L16 9L16 8L15 8L15 9L14 9L14 10L13 10L13 9L11 9L11 3L10 3L10 2L9 2L9 0ZM14 0L14 1L16 1L16 2L15 2L15 3L13 3L13 1L11 1L11 2L12 2L12 3L13 3L13 4L12 4L12 5L17 5L17 4L16 4L16 2L17 2L17 1L16 1L16 0ZM12 6L12 7L13 7L13 6ZM14 6L14 7L15 7L15 6ZM16 6L16 7L17 7L17 6ZM6 9L6 10L5 10L5 12L7 12L7 13L5 13L5 14L7 14L7 13L8 13L8 12L9 12L9 13L12 13L12 12L11 12L11 11L10 11L10 12L9 12L9 11L8 11L8 10L7 10L7 9ZM22 9L22 10L23 10L23 9ZM6 10L6 11L7 11L7 10ZM1 11L1 12L2 12L2 11ZM20 11L20 13L17 13L17 14L16 14L16 16L19 16L19 15L18 15L18 14L20 14L20 13L21 13L21 14L23 14L23 13L21 13L21 12L22 12L22 11ZM21 15L21 16L22 16L22 15ZM0 16L0 17L2 17L2 16ZM17 17L17 20L20 20L20 17ZM18 18L18 19L19 19L19 18ZM14 20L14 22L13 22L13 23L14 23L14 24L16 24L16 23L15 23L15 20ZM20 21L20 22L19 22L19 23L18 23L18 24L19 24L19 23L21 23L21 22L22 22L22 23L23 23L23 22L22 22L22 21ZM0 0L0 7L7 7L7 0ZM1 1L1 6L6 6L6 1ZM2 2L2 5L5 5L5 2ZM18 0L18 7L25 7L25 0ZM19 1L19 6L24 6L24 1ZM20 2L20 5L23 5L23 2ZM0 18L0 25L7 25L7 18ZM1 19L1 24L6 24L6 19ZM2 20L2 23L5 23L5 20Z" fill="#000000"/></g></g></svg>
