<?xml version="1.0" encoding="UTF-8"?>
<svg xmlns="http://www.w3.org/2000/svg" version="1.1" width="300" height="300" viewBox="0 0 300 300"><rect x="0" y="0" width="300" height="300" fill="#ffffff"/><g transform="scale(12)"><g transform="translate(0,0)"><path fill-rule="evenodd" d="M8 0L8 1L11 1L11 3L10 3L10 2L9 2L9 3L10 3L10 5L9 5L9 6L8 6L8 8L9 8L9 9L10 9L10 10L8 10L8 9L7 9L7 8L6 8L6 9L7 9L7 10L3 10L3 14L2 14L2 10L0 10L0 11L1 11L1 13L0 13L0 17L1 17L1 15L3 15L3 16L2 16L2 17L3 17L3 16L4 16L4 17L5 17L5 15L7 15L7 14L5 14L5 15L3 15L3 14L4 14L4 13L5 13L5 12L6 12L6 13L7 13L7 12L8 12L8 11L10 11L10 10L11 10L11 12L9 12L9 13L10 13L10 14L8 14L8 16L10 16L10 18L9 18L9 17L8 17L8 18L9 18L9 19L12 19L12 18L11 18L11 17L12 17L12 16L13 16L13 17L14 17L14 16L13 16L13 15L11 15L11 16L10 16L10 14L13 14L13 11L14 11L14 12L15 12L15 13L14 13L14 15L16 15L16 14L17 14L17 16L16 16L16 19L14 19L14 18L13 18L13 20L12 20L12 21L11 21L11 22L10 22L10 23L12 23L12 24L11 24L11 25L12 25L12 24L13 24L13 23L14 23L14 24L15 24L15 25L17 25L17 24L18 24L18 25L19 25L19 24L21 24L21 25L22 25L22 24L24 24L24 25L25 25L25 21L24 21L24 20L25 20L25 18L24 18L24 16L25 16L25 14L24 14L24 13L25 13L25 10L24 10L24 9L25 9L25 8L24 8L24 9L19 9L19 8L18 8L18 9L19 9L19 12L18 12L18 13L20 13L20 15L18 15L18 14L17 14L17 12L15 12L15 11L17 11L17 10L16 10L16 9L17 9L17 4L16 4L16 7L15 7L15 4L14 4L14 2L13 2L13 1L12 1L12 0ZM14 0L14 1L15 1L15 0ZM16 0L16 2L15 2L15 3L16 3L16 2L17 2L17 0ZM12 2L12 3L13 3L13 2ZM13 4L13 5L14 5L14 4ZM10 5L10 6L9 6L9 7L10 7L10 9L14 9L14 8L13 8L13 7L14 7L14 6L13 6L13 7L12 7L12 6L11 6L11 5ZM10 6L10 7L11 7L11 6ZM0 8L0 9L2 9L2 8ZM3 8L3 9L5 9L5 8ZM15 8L15 9L16 9L16 8ZM7 10L7 11L6 11L6 12L7 12L7 11L8 11L8 10ZM14 10L14 11L15 11L15 10ZM20 10L20 13L21 13L21 14L23 14L23 13L24 13L24 12L21 12L21 10ZM22 10L22 11L24 11L24 10ZM4 11L4 12L5 12L5 11ZM20 15L20 16L21 16L21 21L19 21L19 22L18 22L18 23L20 23L20 22L23 22L23 20L24 20L24 18L22 18L22 16L21 16L21 15ZM23 15L23 16L24 16L24 15ZM6 16L6 17L7 17L7 16ZM17 17L17 20L20 20L20 17ZM18 18L18 19L19 19L19 18ZM8 20L8 22L9 22L9 20ZM13 20L13 21L12 21L12 22L13 22L13 21L15 21L15 22L14 22L14 23L15 23L15 24L17 24L17 23L16 23L16 22L17 22L17 21L15 21L15 20ZM8 23L8 25L10 25L10 24L9 24L9 23ZM21 23L21 24L22 24L22 23ZM0 0L0 7L7 7L7 0ZM1 1L1 6L6 6L6 1ZM2 2L2 5L5 5L5 2ZM18 0L18 7L25 7L25 0ZM19 1L19 6L24 6L24 1ZM20 2L20 5L23 5L23 2ZM0 18L0 25L7 25L7 18ZM1 19L1 24L6 24L6 19ZM2 20L2 23L5 23L5 20Z" fill="#000000"/></g></g></svg>
